/* XPM */
static char *_f7a26f2e5e54bedb779498a6f18180aFNcjwOU3ktJyZmWc[] = {
/* columns rows colors chars-per-pixel */
"64 64 244 2 ",
"   c #020101",
".  c #0B0203",
"X  c #060907",
"o  c #0D0A06",
"O  c #050A09",
"+  c #0B0C0B",
"@  c #130103",
"#  c #1C0001",
"$  c #14050A",
"%  c #1A070B",
"&  c #130B0B",
"*  c #0B110C",
"=  c #16120C",
"-  c #1B140D",
";  c #1E0C11",
":  c #071614",
">  c #131313",
",  c #181716",
"<  c #1C1C1C",
"1  c #260205",
"2  c #2D0101",
"3  c #23040D",
"4  c #330001",
"5  c #3B0002",
"6  c #3A060A",
"7  c #28160E",
"8  c #2A0913",
"9  c #370916",
"0  c #271B15",
"q  c #38171A",
"w  c #11211E",
"e  c #2B2517",
"r  c #33281A",
"t  c #3D331D",
"y  c #0E1F21",
"u  c #371722",
"i  c #092825",
"p  c #192624",
"a  c #113834",
"s  c #242626",
"d  c #2C2B2B",
"f  c #372A26",
"g  c #3A3224",
"h  c #352E30",
"j  c #2A3635",
"k  c #343333",
"l  c #363B38",
"z  c #3C3B3C",
"x  c #430002",
"c  c #4B0001",
"v  c #47080A",
"b  c #540202",
"n  c #5B0001",
"m  c #460A1A",
"M  c #560916",
"N  c #4B1315",
"B  c #650105",
"V  c #6C0103",
"C  c #740002",
"Z  c #7C0002",
"A  c #7A050C",
"S  c #720315",
"D  c #4D2518",
"F  c #42321D",
"G  c #580B22",
"H  c #481524",
"J  c #511326",
"K  c #5A1529",
"L  c #670E28",
"P  c #66142C",
"I  c #72112E",
"U  c #631C32",
"Y  c #6A1C33",
"T  c #7A1432",
"R  c #493C27",
"E  c #4E342C",
"W  c #662A36",
"Q  c #76213B",
"!  c #13443F",
"~  c #23413D",
"^  c #37403F",
"/  c #58442A",
"(  c #534935",
")  c #644B2D",
"_  c #685335",
"`  c #735935",
"'  c #7E613C",
"]  c #762A42",
"[  c #19524C",
"{  c #274F49",
"}  c #384242",
"|  c #285A55",
" . c #1F605A",
".. c #29665D",
"X. c #266A63",
"o. c #306C65",
"O. c #28746C",
"+. c #2A7A72",
"@. c #474747",
"#. c #534F4F",
"$. c #575959",
"%. c #6B5B42",
"&. c #6E584D",
"*. c #73664B",
"=. c #686868",
"-. c #6F6F6E",
";. c #797979",
":. c #840003",
">. c #8C0003",
",. c #8A030A",
"<. c #940003",
"1. c #9C0003",
"2. c #93000A",
"3. c #930818",
"4. c #A50003",
"5. c #AB0004",
"6. c #AD000A",
"7. c #A8080D",
"8. c #B40005",
"9. c #BB0005",
"0. c #B3000B",
"q. c #BB000A",
"w. c #B50012",
"e. c #BB0014",
"r. c #B40B12",
"t. c #BC001A",
"y. c #961222",
"u. c #881638",
"i. c #96193E",
"p. c #B00023",
"a. c #90252D",
"s. c #9C3538",
"d. c #A8262A",
"f. c #B3262B",
"g. c #C30006",
"h. c #CB0006",
"j. c #C3010C",
"k. c #CC000A",
"l. c #D20006",
"z. c #DB0007",
"x. c #D2000B",
"c. c #DD000A",
"v. c #C40013",
"b. c #CB0014",
"n. c #C2001C",
"m. c #CB001C",
"M. c #D30013",
"N. c #DC0014",
"B. c #D4001B",
"V. c #DB001C",
"C. c #C3171D",
"Z. c #E0001A",
"A. c #C50022",
"S. c #CB0024",
"D. c #CC002A",
"F. c #D40024",
"G. c #DA0024",
"H. c #D4002B",
"J. c #DB002B",
"K. c #DD0033",
"L. c #E10028",
"P. c #E10033",
"I. c #84653C",
"U. c #9A1D42",
"Y. c #AB1D47",
"T. c #892A46",
"R. c #98294A",
"E. c #A42249",
"W. c #B32D55",
"Q. c #AB3051",
"!. c #B8365D",
"~. c #BB3961",
"^. c #C62F5C",
"/. c #C63C65",
"(. c #D53E6B",
"). c #8C4C50",
"_. c #94595B",
"`. c #866C45",
"'. c #967447",
"]. c #8A7557",
"[. c #987C55",
"{. c #A57F4C",
"}. c #886769",
"|. c #976F70",
" X c #827D7D",
".X c #D8426F",
"XX c #D8606E",
"oX c #2D837A",
"OX c #31887F",
"+X c #789076",
"@X c #AC8756",
"#X c #AF8855",
"$X c #B9925D",
"%X c #9D8E6F",
"&X c #AC926B",
"*X c #B79668",
"=X c #C29C68",
"-X c #C19F71",
";X c #CAA36E",
":X c #CBA776",
">X c #D4AC76",
",X c #DBB37D",
"<X c #36948A",
"1X c #38958B",
"2X c #3EA398",
"3X c #469B8E",
"4X c #729692",
"5X c #45A69B",
"6X c #4AAEA3",
"7X c #53B5AA",
"8X c #56B7AC",
"9X c #5EC3B7",
"0X c #65C4B9",
"qX c #71CBC1",
"wX c #79D1C7",
"eX c #858383",
"rX c #8B8C8C",
"tX c #908F8F",
"yX c #969898",
"uX c #9FA49C",
"iX c #9AA1A1",
"pX c #A6A9A8",
"aX c #AFB2B2",
"sX c #B4B6B6",
"dX c #BBBCBB",
"fX c #CEB285",
"gX c #DAB785",
"hX c #E3BC85",
"jX c #C8A5A6",
"kX c #EAC28B",
"lX c #EBC591",
"zX c #F4CC95",
"xX c #FAD29A",
"cX c #FFD9A1",
"vX c #85D4CC",
"bX c #93DBD4",
"nX c #AAD4D1",
"mX c #9DE0D9",
"MX c #A7E2DD",
"NX c #C2C3C3",
"BX c #C6CACA",
"VX c #D8D8D8",
"CX c #F2CFD0",
"ZX c #E6E7E7",
/* pixels */
"c.c.c.c.c.c.N.N.Z.Z.L.L.L.L.P.P.P.P.K.K.K.K.H.3.x                 . c <.8.8.4.4.4.4.4.4.4.1.4.4.4.4.4.4.4.4.1.4.4.1.4.4.4.4.5.5.",
"z.z.c.c.c.c.N.N.Z.Z.Z.L.L.L.P.P.P.K.K.K.K.D.t.,.m & X o & & = +   @ x :.1.4.4.4.4.4.4.1.4.4.1.4.1.4.4.1.4.4.4.4.4.4.4.4.4.4.5.4.",
"z.c.c.c.c.N.c.N.Z.Z.Z.L.L.P.P.P.K.K.K.K.D.p.S L D F t F E _ %.( ,   1 c C >.4.5.4.4.4.4.4.1.4.4.4.4.4.4.4.4.4.4.4.4.4.4.4.5.5.4.",
"z.z.z.z.c.c.c.N.N.Z.Z.L.G.L.P.P.K.K.K.K.p.S 9 q ) ' I.I.].*X*X[.g .   @ 5 C 4.5.5.4.4.4.4.4.4.4.4.4.4.4.4.4.4.4.4.4.1.4.4.4.4.6.",
"z.z.z.z.c.c.N.N.N.V.V.V.G.L.J.P.K.K.D.p.3.M 0 R I.#X$X$X=X,XhX*X%.e *   @ c Z <.4.4.4.4.4.4.4.4.4.4.4.5.4.4.4.4.4.4.4.4.4.5.6.4.",
"z.z.z.c.c.x.z.N.N.V.V.G.G.J.J.P.P.D.p.S M D ) `.*XhXhXhX,X,X;X=X&X].( *   # x V >.4.6.5.5.5.5.5.5.5.4.5.4.6.4.5.4.4.4.4.4.5.4.6.",
"z.z.l.l.x.c.M.M.M.V.V.V.F.J.J.J.K.D.S 9 8 R `.#X>XlXxXzXhX=X$X=X,XfX].r     @ 5 Z 5.8.5.5.6.6.5.5.5.6.6.6.5.6.4.5.4.4.4.4.4.6.5.",
"z.z.l.l.x.x.x.M.M.M.B.B.F.G.J.A.p.3.Y E ^ _ ` `.@X&XfXgXhX>X=X;XgX,X&X%.g ,   4 C 5.8.0.0.6.6.0.6.0.6.6.6.6.6.4.6.5.6.4.5.5.6.4.",
"h.l.k.l.k.x.k.M.b.M.B.B.B.G.F.p.S m #.;.;.#.g r f / *.#X;X,X,X>X;X=X=X*X].R * 2 Z 6.q.0.0.0.0.0.0.0.w.0.w.6.6.6.6.4.4.4.6.5.5.4.",
"h.h.h.h.k.k.k.k.k.b.M.b.m.A.t.A 6 ; @.rXrX#.>   = r E *.@X>XzXkX=X#X;XlXfX%.- 4 Z 0.9.q.q.e.q.w.e.e.w.w.w.w.w.6.6.6.6.5.4.6.5.6.",
"h.g.g.g.g.j.g.j.j.j.M.m.e.3.S v @ O j $.$.d X , @.=.$.( *.;XxXlX=X#X>XxXgX*.- 4 Z q.g.v.q.v.e.v.t.e.t.t.t.t.w.6.w.7.6.6.4.6.6.4.",
"g.g.g.g.j.g.j.j.j.v.v.v.7.S 4 @     : s 0 X X ^ yXdX%Xl g @XlXlX=X#X;XzXfX*.- 4 :.q.k.j.v.v.v.n.n.n.n.t.t.t.t.t.w.w.7.6.6.5.5.6.",
"9.9.9.g.q.9.q.q.q.e.w.7.A x .   $ 3 8 8 8 3 u $.uXdX;.s 0 %.-X-X{.'.*X,X:X_ - 4 ,.j.k.b.b.b.m.n.m.A.m.A.A.t.t.t.w.w.w.7.7.6.5.5.",
"9.8.8.9.9.8.9.q.q.6.,.B x #   ; m I T Q T.T.R.&.}.=.} > & f _ ( R R `.$X&X( = 5 ,.j.M.M.M.m.B.m.F.S.S.S.A.t.A.t.t.w.w.w.6.6.6.5.",
"8.8.8.8.8.8.8.8.q.4.V 2 .     9 L U.W.~./.(..XT.J < O     & = ; & - / `.I.R & 5 ,.b.N.M.B.B.F.F.F.S.D.D.A.D.D.t.t.w.w.6.6.6.5.6.",
"8.5.8.5.8.5.8.0.0.4.B #       3 G u.U.R.Q.W.R.] 8       . % 8 3 . . e / / r o 5 2.k.N.N.B.V.F.G.J.H.J.H.D.D.D.t.t.t.w.w.6.6.5.5.",
"5.5.5.5.5.5.5.8.8.4.B #       . 3 9 9 H H J H 9 .       $ m I G 3   o 0 0 * . 5 2.x.N.N.V.F.G.J.J.H.H.H.H.D.A.A.t.t.t.6.6.6.6.6.",
"5.4.5.4.5.4.4.5.4.>.b #       X + + : O O O O O O       3 L u.T 9 .         . x 2.M.N.V.V.V.G.G.J.J.H.H.H.D.S.A.t.t.w.w.6.6.6.5.",
"4.4.4.5.5.5.5.<.C b 2 @       O i a a a i i i : : + + + 8 H K m 3             5 2.M.N.N.V.B.G.G.J.J.H.H.H.D.S.A.A.t.w.6.6.6.5.5.",
"4.4.4.4.5.5.4.Z c # .         i [ O.+.X. .[ [ a p < < < < ; 3 $ .           . x 2.k.N.M.B.V.G.F.J.J.H.H.H.D.S.A.t.t.w.w.w.5.5.5.",
"4.4.4.4.4.<.:.B x 3 $   X * : ! +.2X1X<XoXO.X.{ j s s p < > O       o - = X   5 2.j.N.M.B.B.B.F.F.F.H.F.S.S.A.n.t.e.w.6.6.6.5.4.",
"4.4.5.4.<.V c v M L 9 $ * i [ O.1X6X6X5X1X<XoXX.[ ~ j d p < > O   X e R / e o 5 ,.j.M.M.M.B.B.B.F.F.F.F.S.S.n.n.t.e.w.w.6.5.6.5.",
"4.4.4.4.:.c 1 9 T u.G % : [ oX2X6X8X9X8X7X2X<XoXX.[ ~ d d s < > o o F ` ` F & 5 ,.g.k.b.b.b.m.B.m.m.B.A.m.m.n.n.e.e.0.6.6.6.4.4.",
"4.1.<.Z B M H P u.u.G $ :  .1X7X9X0XqX0X9X7X2X<X+. .{ j d s s , X @ r ) / e o 4 :.q.k.v.v.v.b.b.m.m.m.m.m.n.v.v.e.w.w.6.6.6.4.5.",
"4.1.C x m Y R.R.u.L 9 $ y ..5X9XqXwXwXwXqX0X7X5XOXX.{ j d d d < +   = 0 e *   4 :.0.j.j.q.v.v.v.b.n.b.v.v.v.e.e.q.0.0.6.5.4.5.4.",
"5.<.b 1 8 ] /.!.T.G 1 @ < o.6XqXwXvXbXvXvX0X8X6X<XO.| l d d d < =       .   @ x :.8.j.q.q.q.e.v.v.v.v.v.v.v.e.e.q.0.0.6.5.5.5.4.",
"8.<.b @ ; Q ^.W.u.G 8 @ i o.7XwXbXbXmXmXbXwX0X6X1X+.| l d h h < *       . 1 c V <.0.8.9.q.q.q.q.q.v.v.v.j.e.q.q.0.0.0.8.6.5.5.4.",
"5.1.n # 3 I Y.Y.T G 3 @ < o.6XwXbXMXMXMXbXvX0X6X1X+.| ~ z h k s >       @ b :.1.5.5.8.8.0.q.q.q.q.q.q.j.q.q.q.q.0.0.5.5.5.5.4.5.",
">.Z n 4 9 I i.u.P m 1   i ..6X0XwXmXmXmXbXqX8X5X<XX.| } z z z d *       1 B 1.8.5.5.5.5.8.0.8.q.q.q.q.q.q.q.9.9.8.8.8.5.5.5.5.5.",
"c c M G L I I L m 3 . . i | 5X8XwXwXvXvX0X9X6X1X+...{ j z z } h >       1 B 4.8.8.5.5.8.5.8.8.8.9.q.q.9.9.9.8.0.8.8.8.8.6.5.8.5.",
". % M u.U.u.L m 3       : { <X5X8X9X9X9X0X5X1XoXX.| { ^ z z @.h ,       # B 1.8.5.5.5.5.5.5.5.8.8.9.8.8.9.8.9.8.9.8.8.8.8.5.8.8.",
"  . J E.W.i.G 9 $       : a  .+.2X7X7X6X5X3X<XX. .{ } } z z h h u 9 $ . # n 1.8.5.5.4.5.5.5.5.8.8.8.8.8.8.9.8.9.9.8.8.9.8.8.8.8.",
"  $ U W./.U.G 9 $         : i [ oX2X2X1X<XoXO.| { } } @.^ d < q P I m . # n 4.8.5.5.4.5.5.5.5.8.8.8.8.8.8.9.8.9.8.9.9.9.9.9.9.8.",
"  $ U ~./.R.P 9 $           > a X.+.<XO.X. .[ { j k z z l < . 9 T i.Y 9 8 n >.1.4.4.5.4.4.4.5.7.7.7.7.r.r.7.r.r.r.r.r.q.r.C.C.C.",
"  $ U ~.(.R.L 9 $ .     + < k ^ [ [ [ a a a i p p < s s < + . 9 u.Y.Y.T Y G B C <.5.5.4.5.5.5.7.y.s.s.s.s.s.s.s.s.s.s.s.s.XXXXXX",
"  $ K ~.(.R.K 9 @       , z $.$.j : : : : : : * + O + + +   . 9 u.Y.^.^.R.K 6 x Z 4.5.4.4.4.4.y.).}. X].}.}.}.}.}.}.].}.&XjXCXZX",
"  $ U ~.(.W.I m %       > z $.#.d < > + $       O > > , > O   8 L i.W.W.R.H + 1 b :.1.4.4.5.y.s.|.eXtXtXrXrXrXrXrXtXtXtXpXBXZXZX",
"  $ W ~.(.^.i.L 8 .     X s z @.@.@.z h s +   O < h z @.z s + $ 8 G K U K 7     2 c C 1.7.d.).|.tXuXpXpXpXpXpXpXpXpXdXNXBXNXnXdX",
"  % U !.(./.Y.I 8 .         + d $.=.=.#.l < $ > d @.=.=.$.l O   . . $ & & O X . . # b >.y.s.}.tXaXsXdXdXdXdXdXsXsXNXVXZXVXdXtXeX",
"4 6 K ] R.U.T G 1 . @ 8 8 $   > ^ $.#.z k u 9 u h z @.$.@.s X       O : w g R f * . 6 M a.`. XyXaXNXNXNXNXNXNXNXNXBXVXZXVXaX X X",
"C V M N H 9 9 3   . 9 I L 9   O > p p , < J I P u < p s < :         : a ^ +X@X*.t X - D ] =.+XyXaXNXNXNXNXNXNXNXNXNXNXNXsXyXeX X",
"5.<.B 4 . . . X O , J u.u.G 3 $ $ ; & % 9 T E.T 9 .   % ; $ $ $ @ + i a oX%XfX%X( * > h @.=.;.rXpXNXNXNXNXdXNXdXdXsXaXpXyXrXeX X",
"8.4.:.b 2 @   , } $.] P G G G G U U U U ] W.^.U.9 $ ; H U Y Y U K J u p ^ +XuX%Xl + > j @.$.$.4XpXdXNXNXNXNXNXdXaXuXtX X;.;. X X",
"4.4.1.>.V 4 o j -.rX=.d 9 M u.Y.Q.~.~.~./.(.(.R.u % H R.~.~.~.W.E.u.G , a ..3X+.a O , k } E #.-.yXNXNXNXNXNXdXaXuXeX-.$.$.-.;.eX",
"4.4.5.5.:.x @ k -.tX-.@.h U u.E.W.~.~.~.~.~.~.] q % U ~..X.X~.W.E.u.M % : [ O.[ w o , k } @.@.-.yXsXdXsXsXsXsXpXyX;.=.$.#.=.;.4X",
"4.4.5.5.>.x . , z $.;.rXeX&.U G K U K U U U U m $ % U /..XQ.Q K G m 3 . O : a i * O < k @.$.=.;.tXyXiXiXiXiXyXyX4X;.-.=.=.;. XeX",
"4.4.5.4.>.x @   X s ;.dXdX=.0 . $ % & & % ; & .   $ Y !.~.] 7 $ $ $ . .   O O O   . < k @.=.-. X X XeXeXeXeXeXeXeX X;.;.;.;. X X",
"4.4.5.4.:.x . X % D =.iXyX#.O X s R ( ( g ,         H ] T.W r e e e = X   # 2 4 2 6 N D W )._._._._._._._._._._._._._._._._._._.",
"4.4.4.4.:.x . - R ` ` #.^ , X e *.&X-X&X%Xl X       $ 8 H E ` ' ` ) t = @ 5 V Z Z Z A 3.y.d.d.f.C.f.f.f.f.f.f.f.d.d.d.d.d.d.d.d.",
"4.4.5.5.:.c 1 r ) ' ) r = o , ( *XzXcXzX:X%.0 & + - ; - r ) I.'.I.' / = # b <.5.7.5.5.8.9.r.g.g.m.b.k.x.k.k.k.j.j.j.9.r.r.8.8.7.",
"4.4.4.4.<.C b N R ) / F F / *.%XhXcXxXkX*X`./ R _ %.*.*.%._ ) ) ` / r * # n 1.8.8.8.9.9.9.g.g.h.h.h.l.l.l.l.h.h.h.g.9.9.9.8.8.5.",
"4.4.4.4.4.1.>.V v e F ) '.&X:XkXxXxXhX=X@X'.`.'.*XfXgXfX&X%.r = - - o X # B 1.8.5.8.8.9.9.g.g.h.h.k.l.l.h.h.h.h.g.g.9.9.8.8.5.8.",
"4.1.4.4.5.5.5.C 2 o e _ [.;XkXlXzXhX>X*X#X{.@X$XgXkXlXgX&X( +   X     # 5 V 1.5.8.8.8.8.9.g.g.g.h.l.k.k.h.k.h.g.g.9.9.9.8.8.8.5.",
"4.4.4.4.5.8.5.C 2 X * r ) @X;X>X;X;X>X>X;X$X{.#X=X;X$X]._ s X       # c V >.4.8.5.8.8.9.9.g.g.h.h.k.h.k.l.h.k.k.g.g.g.9.8.8.8.8.",
"4.1.4.4.5.5.4.C 4 .   o e _ '.@X#X#X;XkXhX;X#X{.@X'.` r & . .     @ x Z 1.5.5.5.5.8.8.8.9.9.9.g.h.h.k.k.k.h.h.g.j.g.9.9.9.8.8.8.",
"4.4.4.4.5.5.5.>.n 5 2 4 v D _ I.@X=XhXxXxXhX;X$X#X'.R =   @ 2 2 4 5 B 1.5.8.8.5.8.8.8.9.9.9.g.g.g.g.g.h.h.k.g.g.g.g.g.9.9.9.9.9.",
"4.4.4.5.5.5.5.1.>.Z Z :.V v r _ &XhXxXcXcXzXhX>X=XI./ = . 5 V C C Z >.4.8.8.5.8.8.8.8.9.9.9.9.g.g.g.g.g.g.g.g.g.g.g.g.g.9.9.g.9.",
"4.4.4.4.4.4.5.5.5.5.9.8.1.b 8 R @XgXzXzXzXxXzX,X$XI.R - 2 n <.5.4.4.5.5.5.5.5.8.8.8.8.9.9.8.9.9.9.9.9.q.g.g.g.9.g.g.g.g.g.g.g.g.",
"4.4.4.4.4.5.5.5.8.9.g.j.5.Z n D %.%X*X>XhXhX,X*XI.) D v n :.4.8.8.8.8.5.8.8.8.8.8.8.8.9.8.8.9.9.9.9.9.9.q.9.g.g.g.g.g.g.g.g.j.g.",
"4.4.4.4.4.5.5.5.8.8.8.9.8.6.4.A N g _ {.$X$X#X`.R 7 v C <.1.4.5.5.5.5.8.8.8.8.8.8.9.8.8.8.9.8.8.8.8.9.8.9.9.q.g.g.j.g.k.k.k.k.k.",
"4.4.4.4.5.4.5.5.8.5.8.8.9.g.9.>.c 2 F ) I.I.I./ r 4 b <.5.8.5.5.5.5.8.8.8.8.q.9.9.0.9.8.8.8.8.8.8.8.8.8.8.9.9.9.g.g.g.k.h.k.k.h.",
"4.4.4.4.4.5.5.5.5.8.8.0.9.j.q.4.:.B N D F t F D b V :.4.5.5.5.5.8.5.8.0.8.8.8.q.q.8.8.q.0.8.8.8.5.8.8.5.8.8.9.9.q.g.h.h.k.l.l.l.",
"4.4.4.4.5.4.5.5.5.8.5.8.9.0.9.q.8.1.V 7 o X o 6 V 1.4.4.5.5.5.5.5.8.8.8.8.q.q.q.q.q.q.9.8.0.8.5.5.5.7.5.5.8.9.9.g.g.h.h.l.x.k.x.",
"4.4.4.4.4.4.5.5.5.5.8.8.8.8.9.g.g.8.V #     X 4 Z 8.8.5.5.5.5.5.5.8.0.8.q.q.q.q.q.q.9.0.0.8.8.5.8.5.5.8.8.8.8.9.9.g.h.k.k.x.k.l."
};
