/* XPM */
static char *_4df70273f5445bee1b90c70d2afb2acOd1v4ehEPABop7lO[] = {
/* columns rows colors chars-per-pixel */
"50 50 131 2 ",
"   c None",
".  c #242873",
"X  c #252B7E",
"o  c #3C3E71",
"O  c #7A2456",
"+  c #6B2B6D",
"@  c #3E4279",
"#  c #A01218",
"$  c #BD161C",
"%  c #A11726",
"&  c #C5161D",
"*  c #CB171E",
"=  c #CB181E",
"-  c #D2181F",
";  c #C31C2C",
":  c #D71920",
">  c #DB1A23",
",  c #E41B23",
"<  c #ED1C24",
"1  c #272E84",
"2  c #292E86",
"3  c #2A2F88",
"4  c #2B318E",
"5  c #313684",
"6  c #363982",
"7  c #2C3393",
"8  c #2F369A",
"9  c #343291",
"0  c #30379E",
"q  c #3037A0",
"w  c #3239A4",
"e  c #343CAB",
"r  c #363EB3",
"t  c #383FB5",
"y  c #5E3389",
"u  c #6F3487",
"i  c #3E45A6",
"p  c #3740B6",
"a  c #3941B6",
"s  c #3942BB",
"d  c #42489E",
"f  c #5F619D",
"g  c #727384",
"h  c #676892",
"j  c #63659B",
"k  c #7D7C9B",
"l  c #4449A5",
"z  c #494EAF",
"x  c #4C50A6",
"c  c #4B50AA",
"v  c #595DA9",
"b  c #444BB5",
"n  c #424ABB",
"m  c #4E53B1",
"M  c #4D53BB",
"N  c #5257B5",
"B  c #565BB4",
"V  c #595EBA",
"C  c #5E63B4",
"Z  c #6466A2",
"A  c #6D6EA7",
"S  c #696BAB",
"D  c #6F71A5",
"F  c #7B7CA6",
"G  c #7679AF",
"H  c #6569B5",
"J  c #6B6EB6",
"K  c #6268B9",
"L  c #686DB8",
"P  c #7075B8",
"I  c #797DBD",
"U  c #3C45C4",
"Y  c #3F48C6",
"T  c #3E47CA",
"R  c #3F48CC",
"E  c #444CC1",
"W  c #4049CB",
"Q  c #4A52C3",
"!  c #5057C1",
"~  c #807E91",
"^  c #878282",
"/  c #8E8981",
"(  c #96928F",
")  c #A19C96",
"_  c #A9A49B",
"`  c #8786A6",
"'  c #8484AE",
"]  c #8B8AAD",
"[  c #8487B4",
"{  c #9C9EBA",
"}  c #A39FA9",
"|  c #9EA0BD",
" . c #AEAAAA",
".. c #B2ACA3",
"X. c #BCB6A3",
"o. c #B7B1A8",
"O. c #B8B3AB",
"+. c #B4B6B7",
"@. c gray",
"#. c #C2BBA8",
"$. c #CBC299",
"%. c #D3C99B",
"&. c #CCC4A6",
"*. c #D0C7A2",
"=. c #D5CCAA",
"-. c #DAD0A6",
";. c #DED4AB",
":. c #E0D7AD",
">. c #E4D9AC",
",. c #E9DEAE",
"<. c #EDE2AF",
"1. c #EFE4B0",
"2. c #8286C2",
"3. c #888CC2",
"4. c #8E92C4",
"5. c #9094C9",
"6. c #969ACB",
"7. c #A0A3C6",
"8. c #BBBCD4",
"9. c #C3C3C5",
"0. c #CDCDCD",
"q. c #D4D4D4",
"w. c #D1D2DA",
"e. c #D8D8D9",
"r. c #DEDEE3",
"t. c #E3E3E4",
"y. c #E3E4EA",
"u. c #EAEAEA",
"i. c #F4F4F5",
"p. c #F6F7F9",
"a. c #FEFEFE",
/* pixels */
"                                                                                                    ",
"                                                                                                    ",
"                                                                                                    ",
"                                                                                                    ",
"                                                                                                    ",
"                                                                                                    ",
"                                  p p p s t t r                                                     ",
"                              3 q r U U W W R T U s e                                               ",
"                                      e p T T s t t e 7 7 3                                         ",
"                                          e e U U U U U U s s t w                                   ",
"                        e r p r e w       3 s R R T U R R R W T T U                                 ",
"                      U T R R T T T Y p 4 p R U K { G m H 3.4.I ! W q                               ",
"                    X 4 3 q w e r U R R a U Y L p.i.g C 2.i.u.9.[ Q w                               ",
"                        q e w q 7     8 8 p R P 8.2.n Y Q 6.y.y.5.Q e                               ",
"                  8 p U U T T T U r         s T U Y Y e 6 s B B E R w                               ",
"                            e e p s U s e   w U R R N Z j S A f b U                                 ",
"                                    w s s p q e s U k $.%.%.$.) B r                                 ",
"                      e w q e e           r r 7 4 e c ^ ( / ^ h i                                   ",
"                              a r w 8             7 p a l 6                                         ",
"                                7 7 7 7         3 e r s U w                                         ",
"                        e s s s s s t t r 3 7 t s U s U T U r e 8           w w 0 r s e             ",
"                    e U U T R R W W W T p e w U R R R R R R R U U U e     2         r U w           ",
"                  s U R Y s r e r e r w s T U T R n v A m U R R W R p .               r r           ",
"                p R R p e s T U T T U e r U T W U _ ;.;.=...F M W W p 8                 d o         ",
"              e U T r s T r q e e t t s R R W T D <.1.1.1.<.<.X.C T R e               9.r.e.        ",
"          8.+.| H l U Y T r r r U U e s R R R U X.1.1.1.1.1.<.&.J R R w             0.u.t.          ",
"        q.a.a.a.y.w.7.n U U Y U r e e p R R R b -.1.1.1.1.<.<.} M R R 8                             ",
"        q.a.a.a.a.a.u.@ 1 q r s U U e t R R W z >.1.1.1.1.<.;.' Y R R 7                             ",
"        q.p.a.a.a.a.t.      t p r r r s R R R z :.1.1.1.1.1.#.H R R U                               ",
"          t.p.a.a.p.0.          r r w r R R R n *.1.1.1.<.=.] E R U e                               ",
"            e.t.t.e.                  e R W W T `  .o.X.O.] M R R r                                 ",
"                                    7 8 p T W W n M V C V E R R s                                   ",
"                                    4 7 e U R R R R R R Y T U s w                                   ",
"                                  8 p s e r T R R R R R T s w 8                                     ",
"                                r U U r   8 U R R R R R U e q e                                     ",
"                            0 U U r           r U R T p w   e r                                     ",
"                          e U r                               e                                     ",
"                        a U w                                 r e                                   ",
"                      r T w                                   e r                                   ",
"                    e R p                                       r e                                 ",
"                    p U w                                       t s e                               ",
"                    u u +                                         t U p e   # $ & &                 ",
"          & : : : ; ; > :                                           e s s O - - : :                 ",
"          - , < < < < , $                                               9 %                         ",
"            * - - - =                                                                               ",
"                                                                                                    ",
"                                                                                                    ",
"                                                                                                    ",
"                                                                                                    ",
"                                                                                                    "
};
