/* XPM */
static char *fbfde12f84d24795b2452abfc41f9998IWdAeIgS0AiyPWR6[] = {
/* columns rows colors chars-per-pixel */
"42 63 79 1 ",
"  c None",
". c #070505",
"X c #0A0505",
"o c #0F0906",
"O c #0E0808",
"+ c #140C07",
"@ c #130B0A",
"# c #1A0E0A",
"$ c #1D1106",
"% c #1E100C",
"& c #1B1110",
"* c #221507",
"= c #23120E",
"- c #29150F",
"; c #2C1A0A",
": c #311D0B",
"> c #261410",
", c #2A1511",
"< c #2D1815",
"1 c #2B1B1A",
"2 c #341A14",
"3 c #3A1C16",
"4 c #331E1C",
"5 c #3C1E19",
"6 c #3E240D",
"7 c #37201E",
"8 c #3A211E",
"9 c #3B2321",
"0 c #401F18",
"q c #42270D",
"w c #462A0D",
"e c #4C2D0F",
"r c #44221A",
"t c #48241D",
"y c #502F10",
"u c #553210",
"i c #5A3511",
"p c #5E3812",
"a c #663C13",
"s c #693E13",
"d c #442622",
"f c #4B2721",
"g c #432826",
"h c #4D2923",
"j c #452A2A",
"k c #4C2D2C",
"l c #532C26",
"z c #542F2A",
"x c #4E302F",
"c c #55312D",
"v c #5A312C",
"b c #553332",
"n c #5A3737",
"m c #5C3836",
"M c #5D3938",
"N c #613632",
"B c #653A36",
"V c #653D3B",
"C c #683C39",
"Z c #6D4114",
"A c #744515",
"S c #794716",
"D c #7D4917",
"F c #6C413F",
"G c #764745",
"H c #7C4B4A",
"J c #824D17",
"K c #864F18",
"L c #875019",
"P c #885018",
"I c #90551A",
"U c #96581B",
"Y c #9A5B1C",
"T c #A05E1D",
"R c #A5611E",
"E c #AC651F",
"W c #AF6720",
"Q c #B46B21",
"! c #804F4F",
/* pixels */
"                                          ",
"                                          ",
"                                          ",
"                  ......XX.               ",
"                @=X=,-,-=@##X             ",
"              #19r@3trtm5#22>#            ",
"            #,4dCh#2llzG0=202>>#          ",
"          .&4zb4b8+,zbfB4#,3><rf#.        ",
"         ..nBtt2@O..OXXOXXXX<rvH5X.       ",
"        @rt&>r2O*iZAAAAAAss:X,r5@tC9      ",
"       @>Gt3>#:iAISYWYWRYJISi6%*3rt8>     ",
"      >,&k,=6eaUTRDTQQQQTPTTYAyw=-3299    ",
"     4h5<&6qaKKWQWDRQQQQWPTQQIDPq6-,hd=   ",
"    @49<>6KITYKQQWJTQQQQTPTQQIPWIPu->,==  ",
"   X>1>#+aWQQYKWQWDTQQQQRPTQQIPQQEA;#>22@ ",
"   X>hl2#aEQQYKWQWJTQQQQRPTQQIPQQWA:=rfd@ ",
"   X=zN5#aEQQYKQQWJTQQQQWPTQQIPQQED;<hvz@ ",
"   X.>r3#aEQQYKEQWJTQQQQWPTQQUPQQEA6xBt3O ",
"   X,,O.+aEQQUKQQWDTQQQQTPTQQIPQQEA:..XX. ",
"   X=r5,+aEQQYKEQWJTQQQQRPTQQIPQQEA:=55-X ",
"   X=zz3#aEQQYKQQWJTQQQQRPTQQIPQQEA:,tr2O ",
"   X@44=+aEQQYKEQWJTQQQQEPTQQIPQQEA:,r3&X ",
"   o17,%+aEQQUKQQWJTQQQQTPTQQIPQQRu##>1>O ",
"   @8Bv3$aEQQYKEQWDTQQQQRPTQQIsaau$.#=gk@ ",
"   X,vv5#aEQQYKQQWJTQQQQEPTQQIyoX+..-tNk@ ",
"   X,r5,#aEQQYKEQWJTQQQQRPTQQUu;;*XX=vN5@ ",
"   .,,OX+aEQQYKQQWJTQQQQRPTQQIKWEY:..,r3O ",
"   X.j!V=aEQWYKWQWJWQQQQRPTQQIKQQEA:,-O.. ",
"   X=rBm=aEQQYPWQWJTQQQQRPTQQIKQQWS:-05,X ",
"   X=rfd#aEQWYPWQWJTQQQQEPTQQUKQQEA:-tt2@ ",
"   .@>22#aEQQYPWQWDTQQQQRKTQQIPQQEA:,tt2O ",
"   X#48=+aEQQYPWQWJTQQQQRPTQQIPQQEA:-2,#X ",
"   X,zh>+aEQPuwDEWJTQQQQWPTQQIPQQEA:#,=#X ",
"   X=tt2#aEWJ:*aTWSTQQQQTITQQIPQQEA:@2fd@ ",
"   X=332#aEQRa6TQWJTQQQQTPTQQIPQQEA:>rvz@ ",
"   XXX=2#aEQQAqRQWJTQQQQEPTQQIPQQEA:,rt3O ",
"   X,t2X+aEEiXX6YEDTQQQQTITQQUPQQWA:XXXX. ",
"   X-t0,+aEiiDsauUDTQQQQTKTQQIPQQES:=33,O ",
"   o=002$aEeiIDSePJRQQQQEKTQQIKQQEA:-tr2X ",
"   X@=-=+aEDiw6uAYJEQQQQTITQQUPQQWA:rc5#X ",
"   X#,,=+aEQKywARQDRQQQQRPTQQIPQQWA:14,#X ",
"   X=rr2#aEQQYKWQWDTQQQQRPTQQIPQQWA:#=22@ ",
"   O4lt2#aEQQYKWQWDRQQQQEPTQQIPQQEA:,0hd@ ",
"   @jNr,+sEQQYKQQWDRQQQQRPTQQIPQQEA;>0vz@ ",
"   @kxO.+aEQQYKWQWJTQQQQRPTQQIPQQEA;X>r3O ",
"   X.=r2#aEQWYKWQWDTQQQQRPTQQIKEWY:.,-XX. ",
"   .=5t3#aEQQYKQQWJRQQQQRPTQQIi***o.,05<X ",
"   X=rlz$aEQQYKEQWDRQQQQEPTQQIe++o.X-tzz@ ",
"   X#=kn=aEQQYKQQEDRQQQQEPTQQIZaau$.+2NM@ ",
"   X#>44#aEQQYKEQQDTQQQQRPTQQIPQQRu$#-44@ ",
"   o>r3#+aEQQYKQQQDRQQQQRPTQQIPQQEA:-3=#X ",
"   X,ll3#aEQQUKEQEDRQQQQRPTQQIPQQES:,rr2X ",
"   X=kz2#aEQQYKQQQDRQQQQEPTQQIPQQEA:,ft,X ",
"   X.XXX+aEQQYKEQEDRQQQQRPTQQIPQQEA:,Bb@. ",
"   X,tr3#aEQQUKQQEDRQQQQRPTQQIPQQEA:.O=2@ ",
"   X=0t2+aEQQYKEQQDEQQQQRPTQQIPQQES:=5zk@ ",
"   .@352#aWQQUKQQQDTQQQQEPTQQUKQQES:>vBd@ ",
"   X19>##aWQQYKWQEDRQQQQRPTQQPPQQEA:#bC5O ",
"   @5h<#@aPPIKSIUPAKIIIIPDPIIJDIIPZ:#49=. ",
"   X4zt2@6qq6q666q6666q666q666q6q66$,241O ",
"   o4g2=XOOO+oOo+OOoo+OoO+Ooo+OoOOOX#289@ ",
"    O@+XXXX...X.X.X...X...X...X.XXX.XX@@. ",
"                                          "
};
