/* XPM */
static char *_5118a4087fc47f9aa8d25cb76638cf8237pAIts0uDNQ4aQ[] = {
/* columns rows colors chars-per-pixel */
"64 64 193 2 ",
"   c #152503",
".  c #1B2C03",
"X  c #1D2C0B",
"o  c #22320E",
"O  c #27380E",
"+  c #253513",
"@  c #283716",
"#  c #2B3C15",
"$  c #2D3D1A",
"%  c #303F1B",
"&  c #2F4117",
"*  c #2E431C",
"=  c #304115",
"-  c #354B16",
";  c #394E16",
":  c #33441B",
">  c #38461E",
",  c #37491D",
"<  c #3A4B1D",
"1  c #36511A",
"2  c #3C531C",
"3  c #3D591E",
"4  c #384726",
"5  c #374A21",
"6  c #3B4C23",
"7  c #3C4C2A",
"8  c #3E5522",
"9  c #3E5A21",
"0  c #42571F",
"q  c #405C1F",
"w  c #404F2C",
"e  c #425326",
"r  c #445B22",
"t  c #4A5F27",
"y  c #43542C",
"u  c #46592D",
"i  c #4A5C2E",
"p  c #465631",
"a  c #475A34",
"s  c #4B5B35",
"d  c #4E5E39",
"f  c #515D37",
"g  c #456125",
"h  c #4A6325",
"j  c #4C632A",
"k  c #4E6829",
"l  c #51662E",
"z  c #526C2D",
"x  c #4E6533",
"c  c #4E623A",
"v  c #506336",
"b  c #556B33",
"n  c #596E36",
"m  c #54653C",
"M  c #55693B",
"N  c #596B3D",
"B  c #5B7536",
"V  c #5D733C",
"C  c #5F7A3D",
"Z  c #61763E",
"A  c #647E3F",
"S  c #566641",
"D  c #5A6640",
"F  c #5B6C42",
"G  c #5C6E48",
"H  c #5E7144",
"J  c #5D7841",
"K  c #5E7048",
"L  c #606F46",
"P  c #627446",
"I  c #647B43",
"U  c #697E46",
"Y  c #63744A",
"T  c #69774C",
"R  c #667A4C",
"E  c #6A7C4D",
"W  c #6C7D51",
"Q  c #727F53",
"!  c #668145",
"~  c #6A8346",
"^  c #67824B",
"/  c #6C824B",
"(  c #6D884C",
")  c #72864E",
"_  c #738B4E",
"`  c #6E8152",
"'  c #6F8C52",
"]  c #728454",
"[  c #788557",
"{  c #758B54",
"}  c #7A8E55",
"|  c #748659",
" . c #768A5A",
".. c #7B8D5C",
"X. c #779152",
"o. c #7B9256",
"O. c #779358",
"+. c #7D925B",
"@. c #7D995F",
"#. c #7C8F61",
"$. c #7E9261",
"%. c #818F5C",
"&. c #82955E",
"*. c #829A5D",
"=. c #839563",
"-. c #879864",
";. c #859866",
":. c #859A62",
">. c #889B64",
",. c #8B9D66",
"<. c #8B9E67",
"1. c #899C65",
"2. c #8C9D67",
"3. c #8A9C64",
"4. c #849769",
"5. c #849769",
"6. c #879969",
"7. c #879B69",
"8. c #869A69",
"9. c #869B6B",
"0. c #899B69",
"q. c #8B9C68",
"w. c #8A9D6A",
"e. c #8C9D69",
"r. c #8E9F6A",
"t. c #899D6C",
"y. c #8D9F6D",
"u. c #8B9E6B",
"i. c #909F66",
"p. c #85A166",
"a. c #8DA266",
"s. c #8FA06A",
"d. c #8DA16D",
"f. c #8FA36F",
"g. c #8FA16E",
"h. c #8FA46C",
"j. c #8DA26A",
"k. c #8EA86B",
"l. c #92A266",
"z. c #93A66F",
"x. c #91A56E",
"c. c #93A56C",
"v. c #99A76D",
"b. c #95A96E",
"n. c #9BAA6E",
"m. c #8EA371",
"M. c #91A371",
"N. c #95A772",
"B. c #93A672",
"V. c #97AB73",
"C. c #96A972",
"Z. c #96A876",
"A. c #95AA72",
"S. c #9AAB75",
"D. c #98A975",
"F. c #9AAD76",
"G. c #9BAD73",
"H. c #99AB79",
"J. c #9CAE79",
"K. c #9DB175",
"L. c #9FB07A",
"P. c #9EB179",
"I. c #A1AE73",
"U. c #A0AF78",
"Y. c #A3B276",
"T. c #A8B377",
"R. c #A2B37D",
"E. c #A4B57A",
"W. c #A9B67A",
"Q. c #A6B97D",
"!. c #ACBA7D",
"~. c #A5B681",
"^. c #A9B781",
"/. c #A6B981",
"(. c #ADBC81",
"). c #ADBE88",
"_. c #B1BE82",
"`. c #AEC185",
"'. c #AFC388",
"]. c #B3C285",
"[. c #B8C387",
"{. c #B5C489",
"}. c #B9C68A",
"|. c #B6C88B",
" X c #BBC98D",
".X c #B9C690",
"XX c #BDCB91",
"oX c #C0CE92",
"OX c #C2CF99",
"+X c #C3D194",
"@X c #C5D399",
"#X c #C8D69C",
"$X c #CBD8A0",
/* pixels */
"  o o o $ # @ = > 5 5 : : 5 6 5 > 6 e < : < < < < < < < 6 < e e 7 6 6 5 5 , 6 6 p y 5 * , 8 5 # * : * & @ & $ @ * $ @ @ @ + X   ",
"X : 6 7 p y y s m F F F K J ^ R E ] ] T P P E P Y T E E E W Q ] ` E Y H K Y Y R W W Y F H Y G x c c c a a d d a d 7 w 7 7 4 $ @ ",
"+ e f m F F F P R W | | #.$.5.5.4.6.4.%..... . .E ] ] [ [  . ...$.#.| ` ] | | ` $.$.#. .|  .W H R W W Y K K K G G S S m d a 4 % ",
"# p N N P F P E `  .#.#.$.$.9.9.=.4.6.4.=.&. .[ {  .....#.#.%.&.;.;.;.9.9.9.$. ...$.$... . .` W | | | ` W W R T G G G G S d 7 $ ",
"= v H H Y R W | $.;.1.;.9.d.m.d.y.x.B.S.D.y.-.&.-.-.y.3.e.e.,.q.u.d.m.Z.H.V.m.6.+.=.4.=.&.&.*.o.#.#... .` | ` E W E R Y G S p $ ",
"- b P H R (  .+.;.u.h.k.h.A.V.A.S.G.J.E.U.v.3.&.-.-.2.2.i.3.y.x.h.z.z.A.A.V.F.H.1.u.1.1.,.3.*.*.$.$.$... . . .] ] | ` R T G u * ",
"- b J C U { ..+.:.j.x.x.z.b.V.A.J.G.J.E.R.G.i.>.i.l.z.c.N.v.S.U.P.P.P.P.P.P./.).K.A.x.a.1.2.a.*.9.u.;.&.+.$.+. . . .| R R Y x : ",
"< n R I ) o.+.&.j.b.K.G.V.K.G.V.Q.R.E.^.).Y.G.C.l.l.c.C.C.U.E.Q.A.K.Q.!.P.K.P.!.'.Q.K.b.z.l.a.a.k.m.j.:.;.:.,.4. .$.| ( ( R M 2 ",
"1 b C ( o.o.p.*.c.b.n.n.G.K.K.n.W.Y.(.{.(.R.U.G.n.n.n.n.Y.T.T.!.Y.Y.!.!.!.Q.!.Q.Q.'.'.Y.n.n.n.k.c.c.x.N.l.2.,.:.@...{ ' ^ U N 8 ",
"3 B A _ o.X.a.a.b.G.K.K.K.W.Q.W.).W.(._.W.U.W.W.b.K.!.!.Y.T.!.|.`.`.'.|.|.|.|.'.].|.|.!.Y.K.K.K.v.B.v.v.v.c.j.j.1.&.+.O.' / J 9 ",
"q C ~ _ o.o.a.k.G.K.K.K.Y.!.!.!._.W.)._.Y.U.!.!.T._.].|.!.W.!.].|.].|.|.|.|.|. X|.].`.`.`.Q.K.Y.v.v.v.n.S.c.x.j.k.1.:.@.{ O.I r ",
"q C ~ X.*.*.k.k.Y.Q.Y.K.Y.W.!.Q._._.}.XX_.!.(.!.|.[.].].|.].!.!.|.|.|.'.|.|.|.|.|.`.!.`.`.Q.Y.!.U.J.I.G.b.B.x.A.x.a.1.$.O.{ J 9 ",
"3 C ( @.p.*.k.b.Q.Q.W.T.T.!.!.W._._.}.oX}.{..X}.|.|.[.|. X X].!. X X}.}.{.|.|. X|._.!.[.`.!.Q.!._.(.R.U.P.H.P.P.H.k.Z.@.$.O.J 9 ",
"g ! ' p.k.p.K.K.Y.Q.!.!._.].]._._.W.^._.(.{.oX+X X+X#X+X X[.]._. X|.|.|.|.{.|.|.|.`.].`.].!.!.`._._.^.W.P.P.P.P.V.k.Z.@.$.' J 9 ",
"g ( O.p.k.k.K.K.Q.`.].].].|.].]._.U.U.^.^._.}..X+X#X#X#X+X|.].].|.}.|.[.].].].{.].[.|.`.!._._.!._._.(.(.~.P.P.P.P.Z.V.k.$.' V 1 ",
"g ( O.p.k.@.K.K.Q.`.].[.].[.].!.[.!._.{.).{.{.!.{.{.}.+X#X+XoX|.|.|.}.{.{.[.].].!.|.|._.Q.!.!.!.^._.).).'.'./.P.H.k.V.@.$.' V 1 ",
"k ~ *.*.a.k.n.Q.`.!.`.{.|.{._. X_._.(.].]._.].}. X X X X+X+X+XoX_.].].!.!.!.!.!._.].].!.T.Y.T.!._..X_._.`.{.`./.P.V.x.a.:.o.C < ",
"k ( *.*.a.k.n.Y.`./.`.{. X]._.[._._._._.[.(.[. X+X X X X+X+XoX X X X[.].].!.].].!.].]._.!.!.!._.^.).oX_.`.`.`./.P.b.x.a.:.+.I 0 ",
"k ( @.*.k.b.K.K.!.`.].|.{.]._.}. X[._.[.[.[.}. X+X X X X X X X[. X[.[.]._._._.]._._._._.].].]._.^._..X X'.`.(./.E.b.z.k.j.*.U 0 ",
"z _ @.*.k.K.K.K.Q.!.].{.{.].}..X}.[.[._.].}. X X+X X X X X X[.[.]._.!.!.!._.].[.[.]._._.].]._.!.(._.). X]././.Q.Q.V.z.z.x.3./ 0 ",
"z X.*.*.k.K.K.Y.K.Q.].]._._.[.oX X}.].`.].|.}.}.|.|.|.|.[.[.[.[._.!.!._.].|.|.|.].]._._.]._.!.T.!.^.(.{.{.(./.E./.K.F.A.x.3.~ r ",
"z X.k.k.n.Y.K.Q.K.Q.(.(._.].oXoX X}.].`.[.|.}.].].].[.[.[.].].[._.].].[. X X|.[.]._.!._._.].!.!.!.T.W._.{.'./.)./.Y.J.G.j.3./ t ",
"z X.k.k.k.Q.Q.Q.Q.(._._.]. XoX[.}.}.[.[.[. X}._.].].[.[.].].].].].[.].[. X X].!._._._._.]._._._.(.^.(._.`./.`.{./.Q.K.C.j.:.) l ",
"z o.K.k.K.Q.K.Q.(.`.]._.[. XoX[.[. X{.[.}.oX}.!.].].|.].].!.!.].].[.[.oX+X+X[.!.]._.].!.!._._._.{._.{.{./.Q./.|.Q.P.R.C.a.:.) n ",
"B X.k.n.Q.Q.`.|.`.`.!.`._._.[.+X[.].]._.].].[.[. X].[. X].].[.[.].[. X X[. X X|.[.`._._.!._.].].Q.(.]. X|.`./.`.`.K.A.z.k.1.( b ",
"A p.K.Q.`.!.Q.Q.`.Q.!.`._.!._.[.[.].[.].[.[. X XoX|. X X|.[. X[.].[.|.[.[. X X X X[.].]._._.!._._.(.(.{.`.!././.Q.K.V.b.a.:.) b ",
"~ p.k.K.Y.Q.Y.!.`.Q.Q.`.!.!.!.!.].[.|. X X XoX X+X XoX+X|.[. X[._.].|.|.[. X X X X X}.]._._.!.!._.(.(.(.Q.E.Q.Q.P.V.V.z.1.&.) n ",
"B X.*.@.a.k.K.Y.Q.Q.Q.!.].[.[._.].[.|.oXoXoXoX X+X X XoX[.|.|.]._.[.|.[.[.|. X X X[.}.[.]._._.!.Q.^.Q.Q.Q.Y.P.E.P.K.b.b.a.&./ b ",
"z ~ X.X.*.l.k.Y.Y.Y.Y.!.|.|.].].].].[.oXoXoXoX X+X|.oXoX X X|._.].|.|.[.[.[. X[.}.[.].].[._.!.!.E.W.W.Q.!.Q.E.P.Q.A.B.c.a.&.^ t ",
"k A X.X.*.a.k.n.K.K.!.!.!.].].!._._.].|.[. X X XoX X XoX X X X].].[.[.[.].].[.].[.[.].].!.!.!.W.W.Q.(.(.!.`./.E.Q.G.b.c.k.:.U r ",
"q A X.*.a.k.l.k.n.Y.Q.!.!.!.!.!.!.!.!._.].|.[. X X[. XoX X X X!.!.].].!.!.!.!.!._._.!.!.!.!.Q.!.W.(.!.W.Q././.E.P.b.b.G.x.>.U r ",
"k A X.X.*.l.a.n.k.Q.Q.Q.!.!.|._.!.!.!.!._.]. X X[.].[. X X X X!.!.!.].!.!.!.!.!.!.!.!.W.!.!._._.(.(.W.U.E.Q.Q.K.G.b.J.J.x.*.U t ",
"j U +.X.o.&.j.Y.^.^.T.^._.[.[.[.!.!.].!.!.!.].[.[.|.].|.|.[.!.!.!.].!.!.!.!.!.]. X!.T.].!.!.!.!. X[.!.!.Q.K.Q.!.K.k.k.n.a.*.~ k ",
"t ~ &.&.&.>.l.G.I.T.T.T.^.[.[.^.].].].!.!.!.!.!.!.!._.].[.[.[.].!.!.!.T.!.!.!.!. X!.!.!.!.!.].!. X|.].!.Q.Q.Q.Q.K.K.k.k.p.a.X.k ",
"t U +.:.2.x.l.C.D.T.T.^.^.[.[.[.!.!.].!.!.].|.[._.].].[.].]._._.!.!.!.T.T.!.!.].|.!.!.!.T.!.].!.].].].].`.Q.Q.Q.K.K.K.p.*.l.*.z ",
"r I } :.l.C.v.G.v.I.T.T.T._.[.[.T.!.!.!.!.[.[.|.!.].[.|.[.!._._.!.!.!.!.!.!.!.].|.!.].].!.!.].[.].].].].`.`.|.`.Q.K.k.p.*.a.X.B ",
"j I } &.y.B.v.C.v.U.T.T.!.!.[._.!.!.[.!.!.].].!.T.!.].[.[.[.].|.].].!.!.!.!.].].].!.].!.!.!. X X|.|.].].].|.|.|.'.K.B.b.x.:.{ Z ",
"l U %.&.i.N.l.C.D.U.T.T.T._._.!.!.!.!.!.].].].!.!._.].[.[.[.[.].!.!.!.T.!.!.!.!.!.!.!.].!.[. X+X+X|.|.].].!.`.|.|.K.G.P.K.a.{ Z ",
"j / &.*.y.v.v.D.I.U.U.U.!.!.!.!.T.!.!.!.].|.]._.]._.].].].!.!.!.T.T.T.!.T.!.!.!.T.T.!.!.T.[.+X X+X X|.[.].!.!.!.).K.F.R.K.x.} B ",
"0 I +.a.N.D.U.T.U.T.I.U.!._.!.T.T.!.!.!.!.]._.T.T.!.T.!.].[.!.!.T.T.!.!.!.!.!.T.T.T.T.T.!.[.+X X|.|.|.|.].!.Y.Y.K.V.K.F.A.x.} l ",
"0 I } &.3.b.C.E.n.K.Y.Y.W.!.!.!.!.T.T.T.!.!.!.!.T.!._.].!.!.!.!.T.!.T.T.!.!.!.T.T.T.T.T.].[. X[.|.XX}.`.Q.Q./.P.P.Q.~.P.A.z.+.B ",
"0 U &.*.l.z.b.F.Y.K.Y.Y.T.T.!.W.T.!.T.T.!.!.!.!.!.!.!.].]._.!.!.T.T.T.T.T.!.!.!.Y.Y.T.!.[.+X+X|.|.XX X|./.!.`.!.P.Q.Q.P.k.A.+.C ",
"0 A &.3.b.C.b.G.T.Y.Y.T.Q.W.T.T.T.T.!.!.T.!.!.!.]._.!.].]._.!.!.Y.!.!.T.T.T.!.!.!.Y.Y.!. X+X+X|. XXX|.].`./.)./.Q.P.Q.F.z.x.&.C ",
"0 Z } >.c.J.C.K.Y.Y.Y.Y.T.W.T.T.T.T.!.T.T.T.!.!.[.!.!.!.].].].!.!.!.!.T.T.T.!.!.].!.Y.Y.].+X+X X|.{.].(.(./.!.Q.P.V.K.A.k.1...V ",
"0 Z } *.l.B.C.Y.T.Y.Y.Y.T.T.T.T.Y.Y.!.T.T.!.!.!.[.!.!.!.!.].!.!.!.!.!.!.!.!.!.!.].!.!.!.!.|. X X{.`.(.Q.!.!.P.P.n.b.c.x.>.*.{ n ",
"r Z } &.,.j.x.G.n.n.n.Y.T.T.T.T.Y.Y.Y.!.T.T.!.!.[.!.!.T.!.!.!.W.!.].].].].!.!.[.!.].[.|.[.].!.].{.^.Q.(.`.!.Q.P.V.x.x.k.:.+./ l ",
"r Z { } *.1.a.c.n.Y.n.n.T.T.n.n.Y.n.Y.Y.T.!.T.!._.!.!.!.!.!.Q.!.!.!.|.|.|.!.!.|.!.!.|.+X X].!.]._.W.W.(.`./.K.K.K.l.z.z.3.+.U l ",
"0 Z { } &.2.i.b.Y.T.n.T.n.n.n.n.T.Y.n.Y.T.!.!.T.!._._._.!.!.Q.!.Y.T.!.|.].T.!.].|.].|. X X].!.[.(.Y.Y.(.].Q.K.b.K.z.z.A.a.&.U l ",
"; Z U { &.%.3.a.C.C.G.G.Y.Y.Y.Y.Y.Y.T.T.T.T.T.!.!.!.!.!._.!.W.T.Y.!.[..XXXXX}.}._..XOX.X.XXX)._.).T.I.I.Q.(.Q.K.P.P.m.k.$.@.( g ",
"; Z / { ..&.a.l.G.G.n.G.G.U.U.I.n.T.T.T.Y.W.Y.!.!.Q.!.!.!.!.T.Y.U.E.(.}..X}.}._._..XOXOX.XOX)._.U.n.i.v.I.E.R.K.A.V.k.k.@.@.' j ",
"0 Z U { } &.a.l.G.b.b.b.n.I.n.n.n.n.I.T.Y.Y.T.!.T.Y.Y.T.T.Y.Y.Y.I.Y.!._.[.{._.!._..XOX.XXXXX).).U.n.i.v.v.G.J.J.A.F.k.k.@.$.' j ",
"- Z U _ } } a.b.b.b.v.v.n.n.G.n.n.T.n.n.K.I.Y.T.Y.Y.Y.Y.T.Y.Y.n.n.I.T.!._.(.!._.^._..X)..X.XoX).^.T.I.n.v.b.F.K.P.P.V.V.k.@.' 9 ",
"; n U ) [ %.l.v.c.x.l.v.v.I.n.n.I.Y.I.I.n.n.Y.T.K.I.Y.Y.T.Y.Y.n.n.I.I.T.W.!.!.!.T.T.^._._.).}._.).^.W.U.D.D.J.P.~.~.H.H.k.$.' 1 ",
"0 n A ) _ } *.*.l.a.l.l.v.b.n.n.n.n.I.n.n.n.n.n.n.I.n.Y.T.T.Y.n.n.I.n.I.Y.W.!.!.^.^.^.^.)._._.).(.W.U.H.S.S.F.H.k.~.k.m.@.@.^ 9 ",
"; n Z U %.} %.&.3.3.3.i.l.v.l.l.v.n.n.v.n.n.n.n.n.n.n.Y.Y.T.Y.Y.n.n.I.Y.I.T.U.U.^.^.^._._.)._.).(.(.~.~.U.U.H.N.Z.Z.m.k.m.@.O.u ",
"; n Z U } } &.%.3.3.3.3.i.i.i.i.l.l.v.v.v.v.v.b.v.l.n.n.Y.T.Y.K.n.n.I.Y.I.I.I.I.T.T.T.T.^._.).).).).^.^.^.U.V.M.V.H.m.m.Z.p.$.x ",
"- j I E ) ] ..} *.3.3.3.i.i.3.i.i.i.i.i.i.3.i.l.2.l.c.l.c.b.J.E.n.n.I.I.n.n.n.b.c.v.B.n.U.^.^.U.R.~.~.H.~.~.H.6.Z.m.m.m.9.9.#.G ",
"- i P U T ) { ] %.&.&.&.%.=.&.&.-.3.>.*.3.*.e.i.>.3.2.i.i.l.c.c.*.l.l.l.v.v.k.a.z.l.z.z.H.R.U.H.J.R.H.V.B.L.H.N.~.@.$.~.9.9.| c ",
": i P P T E ] Q [ [ ....%.%.%.%.=.=.=.&.&.&.&.3.-.-.-.-.3.3.y.,.*.*.a.l.c.A.l.>.2.2.,.y.M.N.N.g.t.m.d.t.9.6.t.m.@.~.$.$.@.@.^ 7 ",
": y N N N P T T E Q ) Q Q Q [ %...%.%...%.[ %.%.%... .#.%.%.%. .%.%.*.*.2.l.2.=.4.=.%.=.-.-.=.=.=.6.m.m.d.;.9.t.@.$.#.#.$.| G 5 ",
"# 7 s m m L L L T T T T T T Q [ [ { | ] ] |  .[ ] Q E ) ] { ] Q U ) ) [ { ..%.&.=.#...#.%.#.#.$. ...9.9.9...$.5...W R W | ` S 4 ",
"# 5 a p f f L D L L L L T T Q Q Q W W W E E E ` E W E E W ] Q | T E ) Q E ] {  .%. .[ #.#. . .#.| {  . .....$.5.#.W P H G S 7 * ",
"o * 7 7 w p p p p f f f f f D N N m M m v v m m F D F N N D L L n Z P Z P T P P P N N P L F H R R E ^ R W  . .| Q F c x u 8 * X ",
"  o # # @ % % $ # # % % > > > w > < > : : : > < 6 < 4 : = > 6 e e e e e t i i e e > < < 7 4 6 u < 8 8 8 y x u , e & # & & & O . "
};
