/* XPM */
static char *f11c01cd08df42ecd53494268c2efcdfDyNa5J9MDjnTV95D[] = {
/* columns rows colors chars-per-pixel */
"64 38 176 2 ",
"   c None",
".  c #2C241A",
"X  c #2F291F",
"o  c #30261B",
"O  c #30281E",
"+  c #352D23",
"@  c #392E23",
"#  c #393026",
"$  c #3C342B",
"%  c #3F3830",
"&  c #36373C",
"*  c #393A3F",
"=  c #423225",
"-  c #44372A",
";  c #42392E",
":  c #4B3C2E",
">  c #443B31",
",  c #4B3E32",
"<  c #474036",
"1  c #4F4237",
"2  c #474138",
"3  c #4D463C",
"4  c #4E483F",
"5  c #534334",
"6  c #5C4434",
"7  c #52453A",
"8  c #5B4738",
"9  c #53493F",
"0  c #5C4B3C",
"q  c #644C3C",
"w  c #634535",
"e  c #68513F",
"r  c #3D3D43",
"t  c #4F4940",
"y  c #434447",
"u  c #544D43",
"i  c #5B5146",
"p  c #59534A",
"a  c #5F594F",
"s  c #505052",
"d  c #5C5852",
"f  c #5B5B5E",
"g  c #645244",
"h  c #6A5445",
"j  c #725543",
"k  c #7B5946",
"l  c #775C4A",
"z  c #7D5E4A",
"x  c #745A47",
"c  c #7C614D",
"v  c #666058",
"b  c #6E685C",
"n  c #766455",
"m  c #7D6453",
"M  c #6F6B65",
"N  c #6B6969",
"B  c #78746C",
"V  c #805F4B",
"C  c #985F54",
"Z  c #80634F",
"A  c #8D634E",
"S  c #836451",
"D  c #8C6753",
"F  c #856855",
"G  c #8C6954",
"H  c #866A58",
"J  c #936C55",
"K  c #936E5A",
"L  c #9C6E59",
"P  c #976353",
"I  c #88705F",
"U  c #95725E",
"Y  c #9B735D",
"T  c #9E785E",
"R  c #A26C5D",
"E  c #A2755F",
"W  c #8A7768",
"Q  c #8F7A6C",
"!  c #937767",
"~  c #9B7760",
"^  c #9C7963",
"/  c #957D6B",
"(  c #9D7B68",
")  c #A67661",
"_  c #A47C63",
"`  c #AA7E66",
"'  c #B57F69",
"]  c #978171",
"[  c #9C8574",
"{  c #998678",
"}  c #A98066",
"|  c #A3816F",
" . c #AE836C",
".. c #B2856B",
"X. c #B9846D",
"o. c #B4896F",
"O. c #BB8C6E",
"+. c #A28370",
"@. c #AA8670",
"#. c #AA8872",
"$. c #AA8E7C",
"%. c #B48770",
"&. c #BC8572",
"*. c #B68B74",
"=. c #BD8D73",
"-. c #BC8E79",
";. c #B2917C",
":. c #BC937C",
">. c #C08E73",
",. c #C48E78",
"<. c #C18275",
"1. c #C39175",
"2. c #C4947B",
"3. c #C9947C",
"4. c #CC9A7D",
"5. c #999791",
"6. c #949291",
"7. c #B19685",
"8. c #BA9681",
"9. c #BE9981",
"0. c #B69A88",
"q. c #BC9F8E",
"w. c #A19D9C",
"e. c #B09E91",
"r. c #CE8A80",
"t. c #CC9482",
"y. c #C49A82",
"u. c #CC9B83",
"i. c #CC9F8A",
"p. c #D09682",
"a. c #D19D82",
"s. c #D09F88",
"d. c #CCA28B",
"f. c #C6A18C",
"g. c #D3A285",
"h. c #D5A58C",
"j. c #D8A68A",
"k. c #DAAA8E",
"l. c #C6A897",
"z. c #CEAB95",
"x. c #CDAD9A",
"c. c #D2A591",
"v. c #D4AA95",
"b. c #DBAC94",
"n. c #D3AE9A",
"m. c #DAAE9A",
"M. c #CDB09E",
"N. c #D5B19D",
"B. c #DDB19C",
"V. c #E1B49D",
"C. c #E5B89E",
"Z. c #CBAFA1",
"A. c #CEB1A1",
"S. c #D3B4A3",
"D. c #DEB6A1",
"F. c #DEB7A5",
"G. c #D9B6A4",
"H. c #DBB8A5",
"J. c #D4B9AB",
"K. c #D5BAAC",
"L. c #DBBBAA",
"P. c #E1B6A2",
"I. c #E3BBA7",
"U. c #E1BDAB",
"Y. c #E8BFA8",
"T. c #CFC3BB",
"R. c #E3C2B2",
"E. c #E5C7BA",
"W. c #E8C4B4",
"Q. c #D1C9C1",
"!. c #D8D3CE",
"~. c #DED9D6",
"^. c #DFDBD8",
"/. c #EACCC0",
"(. c #E4DEDB",
"). c #E5E0DD",
/* pixels */
"                                                                                                                                ",
"                                                                                                                                ",
"                                                                                                                                ",
"                                                        p u 3 9 u 3 3 v                                                         ",
"                                                  5.p # O > 7 3 3 4 u i u M                                                     ",
"                                              B d $ + . # % + ; $ > % % 2 3 i                                                   ",
"                                              M . X $ # . . O O # # + % % % % 4                                                 ",
"                                              % + # : l S 5 # $ % $ # # # + # $ 2                                               ",
"                                            t $ $ 5 ~ y.y.U x 8 : 7 9 0 0 8 n n > p                                             ",
"                                          a > + 7 S 2.b.m.c.i.2.*.*.:.f.N.J.K.A.Q u                                             ",
"                                          9 ; - V -.h.b.P.V.m.m.m.N.B.G.G.H.S.K.J.i                                             ",
"                                        b , = 6 3.h.b.V.V.b.k.h.h.b.N.B.m.v.z.S.S.W u                                           ",
"                                          - # j g.b.b.b.j.p.j.b.b.m.v.m.B.F.N.n.n.] p                                           ",
"                                          $ o z -.g.k.j.g.g.b.P.F.D.D.U.U.L.G.S.x.{ p                                           ",
"                                          $ O q T 1.g.j.j.b.V.V.P.D.P.P.N.v.N.L.S.] i                                           ",
"                                          $ O : A X.4.k.b.V.k.t.3.2.3.%.X._ ^ | q.{                                             ",
"                                          % + - D =.1.g.B.8.K j k A &.%.w = : 0 S [ /                                           ",
"                                          u # @ 8 O.4.4.~ q = 8 : w v.R.J h H U ^ 0.|                                           ",
"                                            S # - ..4.} k j h ^ P J b./.8.Y L *.N.A.7.                                          ",
"                                          L ) ) 6 } 4.1.2.O.Y L ) 4.g.W.J.v.n.D.R.L.q.                                          ",
"                                          &.3.P _ } g.b.b.j.d.k.V.b.j.Y.E.G.L.R.R.S.l.                                          ",
"                                            u...k._ g.k.C.Y.I.P.b.4.b.P.U.L.u.m.H.N.M.                                          ",
"                                            h.p.4.^ 1.4.b.C.b.j.&.' L D Y U 2.1.d.v.N.                                          ",
"                                            c.h.a.} ..1.4.4.3...X.,.) k j #.f.:.2.f.x.                                          ",
"                                              i.u.%.-.=.O.1...o.*.3.>.` ' -.:. .:.2.x.                                          ",
"                                                  @.1.>.O.O.O.E J ) R C C R Y  .;.2.                                            ",
"                                                  :.*.=.O...*.o.3.t.t.r.<.&.i.z.#.;.                                            ",
"                                                    o. .....T T 1.u.' E ) &.c.l.8.$.                                            ",
"                                                    2.Y Y E } } *.u.g.s.i.c.n.x.$.                                              ",
"                                                  (.Z...Z c G T } :.u.y.-.:.:.7.                                                ",
"                                                N ~.(.Z._ c h h m I ~ Y ~ K F                                                   ",
"                                              s f ~.(.(.T.| c q 5 7 7 1 1 i /                                                   ",
"                                              r * 6.).(.^.!.e.H z e 5 7 q I +.                                                  ",
"                                            y r * & w.).(.~.!.Q.$.J J Y ~ #./                                                   ",
"                                                                                                                                ",
"                                                                                                                                ",
"                                                                                                                                ",
"                                                                                                                                "
};
