/* XPM */
static char *_681a48e825f4fe5fad7c413972103f7IcMC9YV25xqKnrRq[] = {
/* columns rows colors chars-per-pixel */
"64 64 50 1 ",
"  c None",
". c #477E21",
"X c #487F21",
"o c #4B8522",
"O c #4E8C23",
"+ c #508E25",
"@ c #528E29",
"# c #529424",
"$ c #569926",
"% c #589C27",
"& c #55922A",
"* c #5A962D",
"= c #579829",
"- c #5B9D2B",
"; c #5D9730",
": c #5E9C31",
"> c #629F33",
", c #5DA22C",
"< c #61A42F",
"1 c #61A82E",
"2 c #64A434",
"3 c #68A437",
"4 c #66AB32",
"5 c #69AD35",
"6 c #6AAC39",
"7 c #6BB235",
"8 c #6DB33B",
"9 c #6EB83B",
"0 c #71B53C",
"q c #73BB3D",
"w c #74B740",
"e c #78B742",
"r c #74BC42",
"t c #7BBE43",
"y c #77C143",
"u c #7CC345",
"i c #7DC648",
"p c #7EC948",
"a c #81C646",
"s c #83C64A",
"d c #85CB4C",
"f c #8ACD4D",
"g c #87D14F",
"h c #8BD14F",
"j c #8DD451",
"k c #92D754",
"l c #94DA55",
"z c #98DC57",
"x c #99DE59",
"c c #9DE25B",
/* pixels */
"                                                                ",
"    jc c  z   j  c  c    gc    cg cgc    c  h  cc c  j c z  c   ",
"  c  gdyz s j y  g zr faz 5d l z@f07k l  i j2k  u p  w y j zd c ",
"   gftu#3f&f:yf9f#98fd2-8j2f%*f213yl:k&,jur=y2h*h2%uu@f6u3d2 f  ",
"   o9,yl7*4i*f*aO,fd65h56628h7s-r2<37*,h1yor20&42dgg+8y=f<e#-y  ",
" zd-f>O10ue=h722,52dO,6j8yy#$q2goia*f#i-f-,=ly,f=O7:f&5f:fOu,   ",
" f&k9--h4u-550=d%j4&79d*ai*%t1l&a2a-31u86=dur8k2-4df5e1t1*d6h,x ",
" f12f6hu1-%-f>h>$&f4d4f%0uaad%y$#ieau%+utf-kOq3h4h7u##5d2h=+2dj ",
" psf0<eo0-k,*4s58d*qd%9j>u<uo9Oh8Ott07t*ag,qq*l25**@7p#e5y40es  ",
"  :d+yt=rfuqqso*f,#u=#52y->d%6fh1d**=ye#4244f8y&h1-ah4y*sO3f##  ",
"  =00&u746j@u5=4dk0;-#j,>i#6f,uh<8t%-duqs--j6=u,:k,tqq&s-$qrkd  ",
"   yhr#sr+q7drhf*y*8d,7#2jr=8fO2harfj3-21h,9O&ju8:h-=k4tyha#u   ",
"   ju:1fofw8aof218o,puh-qyf-5:4u0hoa822#=8lj54jk+,s#k0q:;u,<6   ",
" jf2,uj2,j6f2<8=j*,fy-2ju@ddd#hr23y0oia+hyy&hh&yyl#ud$jt-@5kosj ",
"  s8f0087:9y&ff$6h026s-s&j45f,d2d&ul<,u0s8;8**a00f<f@p66l8$9fa  ",
" x=i3<fru#7j,:4dtrf68-3252ff>h#%z,t-if-l*w$*u-if42d>$hrt&rf-g7  ",
" w0t-j6=uqk5f&%dOO7=p1%5j-itO9jh8d6#r*#7Oa1#9h57j#2jqu0tO6t##   ",
"  u#,yOd8f@f0ei8,qo1fi$t#%4-1i232d&ua,1&$j25-2O,r#j:f#z@dd1,0   ",
" cjq5z4=hi,4xu:qkuyf8oaha,ct#f42uhf&hhsi7u#eqj5hh,28uy5l6aqfyf  ",
"   ud2hd064f0e=u@qj>-<*8*fyf70f-ss:<52<k8+uojOfh27ff*rj*e-i+h0  ",
"   7df*4f0,dr8h03q:5h4-,-h4*fya14g:j32a*qd9$8$y<ff,d7%j2u08t8   ",
"   --100j-,f,9,0f#f<0a#s0%%q5k##y6145k+d%y1h:i#%44i2#8d,01p216  ",
"   eha11i1g*,@fof7ykody-*kq54qdye#2s-s1qf*=0sohqi45j,do4*0*78sc ",
"  z41iait#l,h,q<93f*y0ftu,7h2f-f8ay1f1sa681h>f,2h2f44u5h$k#d3tc ",
" zyj0h*#ah6f62k7l47<f-u*dqu6#u8u*i*k0ky,ffr6s8j9f=<8h&k*quqh,f  ",
"   :y-hh73=dof*d22fayyt,0y#ah4f#y*56<3ed5h,8,92,5huj&8t=f#fy&4  ",
" cs#0uo956s6fau:%,ayO=fl&<j@-78f&h7yf#5t7*$8j2$f4+q00*i8sko5#   ",
"   dyO$a4f>,87@a<h:>y5u2df@#55d2e-h#2,h-u#a8frf2O%atue=h%*qua,z ",
"   f0iqd1*#7f8qy#4f=qad#85j8k,s#-h>0j-&h*u8ho1tf0hqdO#i30h8ou6z ",
" ciai#f@8-d-22z-1s37f,ia>h-f@8=a7@ffr-y>jh=p52f513*:5y#f2g#9tf  ",
"   l#j*#86d1-eotf##d8$:u7*u6#5>h-1&&<k*#4y,&k2s6f$-2q44OrOf3#   ",
"  cu8&h45dd=f7+$df42%#h,:r#ti-lj,ua##rh4iO,hy&r=2h%hs72d,#4fuu  ",
"   trq*q0op6507ged8yf,9#td4=aio8f5:0tf*i84$ro7j4wrq=&k--y8k-k7  ",
" cldj2#f=yu5f@c5Oqo-his#6js#<3,iih@fi#,&=ifh%$ll++f#df732j-O0   ",
"  yu*4kr%h@f9=56l*%f7*yth&dfd-q3-u,8@jr+85s6jj6s5j64dok4-@ijo z ",
"   0ar8<73ry&fdO5d<3ru@f*d44f%f8t&flO-f,fr2-23r5yh#h:r0rj,=uef  ",
"  jqy<li8-4g=6y8swjy=7t0,0hfrq7#l,<qdf=l8:-d5-8k2iu0#hr,6h0-h4  ",
"   u,ht=f4h4f&-d&&r&y,-,g-hgoutiiut+y2#yoy,Otayyf*5d4h4ho6y#:   ",
"   o#yoy2k6d5-7d,,O9k7Od5#,*,6ui:ao4q5-=-l0-*yO#wOp8k&l@47u%4   ",
"  c57k-=dt-4kf27hd8py*pdt,j5=f-,0fd2hihr4j#s7f,ad#42y88fyf5hpp  ",
"   j6ukifd7dd:-h8-a9#%;i<3jk5ff4jj>#uu+i7&4ok%fdi7gftdsw*8j&8fc ",
"   ift35iw,j9eyr&g2-f4-<-z43d0j,0f*f,&f3qty#u+f7tu6k61l&f<weu   ",
"   @0u55f$-wr4y5fOyuw448,655uh#,:y99afou1t%7&8#1at82%=yr4d7>,   ",
"   tu01,j<i3#*t&h,hh=4f32f17,ua8f&%t#f,if2%dt*f10<5j%j*$2-274lc ",
"   %uk8j4-f#q1d:qa<6,,>4,8hqt05f&4d8d8q5:41*02,dh0f922,h-l=8t15 ",
" chh1h*%fuusy%h4j-02d=f3h5i6#h4h2g*aiay,ds-yeiaqf#84f2h24g4jOd4 ",
" d-6s5h44uOf@fetdrh5d4&,5j&j7%k&7;yd*fidaf%@01u*aq<f6=s6h=fprf1 ",
" cf+5u-a7-trtfe2==fy&ydf#-d:75yt:d2iu+,f,>4fu2#u8:ia-2d,ks*125  ",
"  r7h&#48d6#i4&7<q:u<<quyf4+-06y*7hot$h@j474kp0uO#82k>-k#e,d41z ",
"   x6y4h42=9a04f=ut+83f#q8s<j<f@5d22f,2f&,uf*2ft8ayf#-t20ty&fg  ",
"  l7j,k62,4$u>z*,*i7k%d16f7h0,85-7dfw%-8hh6d,96u<u48,1-k>hO$*   ",
"   k*d-O6%h,@0*uu1#dua2h23u3O8oh,O:25j*=8h-2h-f8a+-@78$&8-h*#uc ",
"   d=6h%rlp8daoOf8-0Odq:r4@j44xj4j6*#0h$8&<qs6qOtq$jj7t6rO-kq8h ",
"   f86678@h-28,affq0u4t#uy-:h8*yy,214k2dr$$d&8j=8f42:h=>8,j2z   ",
"   *k9Oh61q7k6zuoro0h79#*li$4i%4fh8jj&,&-j7q#Ojj2#k-4j7uqx8#w   ",
"  jj22dd#f&ut#08d-#t82j4j2fty-532f@0:d8+<5fuaiyj-ut%f&j--:yi&5c ",
"   :4ii>4urd*8tOi62ui4&k6<yrfOlu5*fio8f#kiwOui*0pkOhr5ti8*-j*h0 ",
"   rj4fy7-5d#wh,tydr&ytt=iaad4y$j-4dyy2fy;-f,:8h4h8p+fw=if,2di  ",
"    :5y9sO-r,&=i87r:6o*27*yi:joOp-rOrr=i#9Oot,ie42i*Or8ro6p-O   ",
"     dO9, O@o8o,oo1    t0O*&:4 .,o:@O@o,#  o;i& w@9  ,o@5.,     ",
"     , ,     *    ,    ,          O    ,        , ,    o,       ",
"                                                                ",
"                                                                ",
"                                                                "
};
