/* XPM */
static char *dce72cd05a9d4dedc38c312a83b6f687RRW17oSNbyyq5hv6[] = {
/* columns rows colors chars-per-pixel */
"64 64 119 2 ",
"   c #A60003",
".  c #AB0004",
"X  c #AD000A",
"o  c #B30005",
"O  c #BB0006",
"+  c #B3000C",
"@  c #BB000B",
"#  c #B50012",
"$  c #BB0014",
"%  c #BD001A",
"&  c #C30007",
"*  c #CA0007",
"=  c #C4000A",
"-  c #CC0009",
";  c #D50007",
":  c #DC0007",
">  c #D30009",
",  c #DB000B",
"<  c #C30014",
"1  c #CB0013",
"2  c #C70019",
"3  c #C2001C",
"4  c #C1001E",
"5  c #C2001E",
"6  c #C2001F",
"7  c #C4001D",
"8  c #C6001E",
"9  c #C7001F",
"0  c #C3001C",
"q  c #CD001B",
"w  c #CE001A",
"e  c #C8001C",
"r  c #CA001F",
"t  c #CB001C",
"y  c #D40011",
"u  c #D70012",
"i  c #D40017",
"p  c #D70017",
"a  c #D40013",
"s  c #DF0010",
"d  c #D90016",
"f  c #DB0015",
"g  c #D00018",
"h  c #D5001B",
"j  c #D3001C",
"k  c #DD0019",
"l  c #DF0018",
"z  c #D8001C",
"x  c #DA001B",
"c  c #E2000B",
"v  c #E0001A",
"b  c #E2001A",
"n  c #C30020",
"m  c #C30021",
"M  c #C30022",
"N  c #C40021",
"B  c #C50021",
"V  c #C70021",
"C  c #C40022",
"Z  c #C50021",
"A  c #C80022",
"S  c #CD0022",
"D  c #CE0022",
"F  c #CF0023",
"G  c #C80025",
"H  c #CB0025",
"J  c #C80026",
"K  c #CA0026",
"L  c #CC0026",
"P  c #CD0027",
"I  c #CA0024",
"U  c #CE0029",
"Y  c #CF002A",
"T  c #CE002B",
"R  c #CE0029",
"E  c #D00021",
"W  c #D50021",
"Q  c #D20025",
"!  c #D50024",
"~  c #D30024",
"^  c #D80021",
"/  c #DA0021",
"(  c #D80026",
")  c #DE0025",
"_  c #DA0024",
"`  c #D00028",
"'  c #D10029",
"]  c #D30028",
"[  c #D0002C",
"{  c #D0002E",
"}  c #D1002E",
"|  c #D4002C",
" . c #D6002E",
".. c #D7002E",
"X. c #D3002B",
"o. c #D9002A",
"O. c #D8002B",
"+. c #DA002C",
"@. c #D30030",
"#. c #D40030",
"$. c #D40032",
"%. c #D70033",
"&. c #D60032",
"*. c #D90031",
"=. c #DB0033",
"-. c #DE0030",
";. c #D80035",
":. c #DC0034",
">. c #DE0036",
",. c #DF0036",
"<. c #DB0035",
"1. c #E10025",
"2. c #E10027",
"3. c #E40027",
"4. c #E10025",
"5. c #E0002F",
"6. c #E10032",
"7. c #E30032",
"8. c #E10031",
/* pixels */
": c s v 2.6.,.*.Q 2 = @ o .                     # n { ;.;.G % X . O & ; : v 3.7.,.@.n # X . O * ; ; - & o .         o O - , c c ",
": : s k ) -.,. .E < @ O o .                     # n T ;.[ H # X . o & ; , v 2.5.,.[ M # . . O * ; ; - & . .         o & - ; : : ",
"; , > h ^ O. .' r < @ @ o o . . X . . X       X # 6 U &. .B $ + o o & * > d z O.&.U n $ + + O - > - * O .           . O * > ; , ",
"- - - 1 q S H B 0 @ @ o o o o O + @ $ # X X     + < S _ W r # X . o O & - 1 g E J G n % % $ @ = - - O o .           . o & * - - ",
"& O @ @ < % % % $ + o o O O & * 1 0 0 6 % X X . + = q z h 2 @ . . . o O @ = $ % 6 6 6 B B 7 < = @ O o o .           . o o O O & ",
"o o o o + + + + X   . o O & - > i W ! U M % + X + = > u u = @ . .   . . o + + + + % 6 H ' L A $ o . . . .           . . . o o o ",
"    . .   . .       . o O * > > x _ .. .J % #   . O - ; > * O .       . . . .     # 6 L  .[ A % + .   .                       . ",
"            . o o o o O O * - y i W o.[ G % + . . O & * * O o . .     . .         + % A ' ' S < @ o . .   .   + + # # +         ",
"        . . o o O O & O & & & = 1 2 j t 0 $ X   . o O O O o o .   . . . + . .     X $ < S j q 2 * O O o . X X # % % % # X       ",
"      . . o O O & * * * * O O o @ < < < $ o X     . . o o o   . . . o o o o . .     o $ < 1 1 > - * O o . X X % G U H % # X     ",
"    . . o o O = - > > > & O . . o @ O @ @ o .   . . . . .   .     o o O o o o . .   + @ @ = - > > > * o . . # 4 J [ U B # X     ",
"    . . . O O = - - > - & O . .   o o O O o o o . . . . .           o o O O o o o o o o o O * - - * & O . X X % H U U 7 $ o .   ",
"        o o o @ * - - - O o       . . o o O O O O o o o . .         . o @ o O O O O O o o o O O & & O o .   + % % 7 r 0 = = @ O ",
"            . o O = * = O o         . . o O * - * * O o o             o o O O * - * & o . o o o o o o .     X X # $ $ < = - - - ",
"      .   .   o o @ O O o o .       . . O & - > - - * O O o .           . O = - - - & o . . . . . . . . .         + o = * > , ; ",
"        . . o o o o @ o + o       . . o O & - - > * = O @ o o . o .       o O - > * & o . .     + X . . X .       . . O * - > , ",
"      . o o O o O o o o .     . . o o O O & * * * & O o o O O O O o . . . o O & * * O o X   X # # $ # + + . . .     . o O & * - ",
"      o O & * & O o o .       . o @ & * * & O O o o o o o O & * & O o .   . . o o o . .   X X % B B n < @ o o     . . . o O O O ",
"      o & - - - O O . .         O & * - * & o o . . . . o O * - - & O . .   . . . . .     X # G ' [ L e $ O o . .     . . . o . ",
"    . O & - > * & o .       . o O & - > - & o . . .     . O * - > * O . .     . . .     X X % G [ [ Q e = @ O o . .   . . . o . ",
"    . o O - - - O o .     . . o o * * - * & O o . . . . . o O * & O O . . . . o o o . .   + # % H H r < @ o o . .   . . o o o o ",
"    . o O - * = O o .     . o o O O O O & & = O O o . . . o o O O O . . . . o O & O O .   X # # % % % + + + . .   . . o O & & & ",
"    . o O @ = O o . . . . o o o o o o O O & * - * O o .   . X o . . .   . o O * * * O o       X X # + + . .       . . O = - > ; ",
"      . o O O O o . . . . O @ @ o o   o o * - > - & o .         . . . . . o & - > * & O o       X     X   . .       o O * ; ; ; ",
"        o o o o o .   . + @ < < @ +     o & * > * * o .   X X # + + + + o O & * - * O o o . . o . o o + # X X X     . O & - > > ",
"        . . o . .     X $ < r r 0 + X . o O * * = O o . X X # % 6 < < = & & * & * & O O o o o O O = < < 6 % % # X . . o O O & & ",
"      . . . . .       + % r Q ' B # X . . O & = & O . . X # n H L E g > - * O O o o o o @ @ & * - - 1 j L L M % + X   . o o o o ",
"            .   .     + % L [ [ H % + . . o O @ O o .   X % G ' .._ z u ; * O o o . + o O O * * > , x ^ O. .J 4 #     . . . . . ",
"X .         .   . . o @ 0 A [ U n $ X X   o o o o . . . X $ A ' .._ z u - * O .   . . o O O & * - > h W o.[ H % + .   . . . o . ",
"o o o . .     . o o O @ < 7 B B % # X       o o . .   . X # 0 A E E 1 - * O o .     . o o O O * = - 1 e A B % # X   . o o O O O ",
"o o o . . . . . O & * - = < % # X X       . . . .       X o % 0 e 1 = @ o o . .     X . . o o o O @ @ $ $ # # X X   . o O * - - ",
"@ O @ o + . . o O * - - = @ o X X     X   .   . . .   . . + @ = = @ o o . . . .     .       . . . . o . X X X X     o O * > ; ; ",
"= & O O o . . o O * - - & O o   .       . . . . . .   . . o O & @ O o . .     .                         . .       . o O * - ; ; ",
"- - = O o . . . O & * * O O . .         . o o o o o . . . o O & * O o . .   . . o . .                   . . .   .   . O O * - - ",
"; > - * o . . . . O O O O O o o . .   . . O O * O O . . . O & * * & o .     . o o + o                 X . o . .     . . O O O & ",
", , > * O o .   . . o o o o O o o . . . o O - - * O o . . O & ; - * O . . . . o o o o .             . o o O o o . . . . . . . o ",
"; , > = O o .       . . o o @ O o o . . o * * > * O o . o O & > - * O .   . o o O o o o . .         o o @ O O o . .   . .   . . ",
"- - * * O o o .           o o O o O o O O * * * * O o . . o & & * & o . . . o o O o O o O o . .   . o O & & O o .       . . . . ",
"& O O O O o o o .       . . o o O O & * & & & & O o .   . . o O O o o . .     + o O O O & O O o . . o O = * * O o .   . . o o o ",
". o o o o O o o .           . o O * * * * & O o . . .   . . . o . o .   .     . . o & * - * & o o . o & - > * O o . . . + o o O ",
". . . + o o @ o + .           . o = > > * O o .   .     .     . .   .             . O * > - & o . . o * > > > = o . . o o O O @ ",
"+ + # + o @ @ @ @ o + # X X   . o & - * & O . .     . . . X + + + X X             . O * - * & o . X o 1 a u y = O . . . o @ O o ",
"n 6 % $ $ o o + $ % % % # X X . o O & O O o .       . o o $ % % % # + X           . o O & O O o . . @ < j h h 2 @ o o o o o o o ",
"[ T H n $ + + + % B H H % # X   . . o o o . .   . . o o @ 0 r L J n # X           . . o o o . . . . + r ! O._ t < @ o o . X .   ",
"<.&. .A % + + # % L [ U B # X       . .   . .   . o o @ = 2 Q  .[ H % +           . . . . .       X $ A [ ..O.t 1 O O o o .   . ",
";.&.' A % o + @ 0 L [ U n $       . . . . . . o o o o O < 0 L [ U H < # o   . .       . . . . . + # % A '  .Q t < @ o o o . . o ",
"H G B 7 < = @ @ < B M 4 % +   .   . . . o o O O O o O o o % 7 B B e < = @ o o . .   . . . + + # $ 0 B L L Q r 0 @ @ o o O O O O ",
"% % $ $ < = - = = % % % X X     . . o O O & * & * O o . + + # $ % < = = = & o . .   . . o @ $ 0 A L L S t e < @ + o o O & * - - ",
"X + + @ = - > - = @ + .       X . o o O = - > - - O o . .     + + @ - - - - O . . . . o @ @ 0 S '  .Q A < < @ o . . o O = - ; ; ",
"    o O & * - - = o . . . . . . o o @ O * - > - - * O o . .     . o * - > - & o . . . o @ = 2 L  .[ Q e < @ o . . . o O * > ; , ",
"o o o O & * - * O o . . o o O O O o o O O = - - & & O O o .     . o & - - - O o . . . o o @ < B H H 7 < @ o o .     o o & * - - ",
"& * & * * O O O O o o O O O & & O O o o o o O O & & & & & o . . . o O * * = O o .     . . + + $ % % $ + o o . .   .   o o O O O ",
"; > - * O O o o o o O O & * - - = O o .   . o o O & - - - & o . . . O & & O o .         .   X + X + X . . .           . . o o o ",
", ; - * O o . . o o @ = * > > ; - O o         . o & - > > = @ o . . o O @ o o . .     . . . . . .   . .             . .   . . . ",
"> - * * O o . . . o O = = i k d 1 @ o         o o = y d a = @ .     . o o o . .       . . . . o o o . .               . o o o o ",
"& & & O O o o o . o o @ 2 h ^ z 1 $ X     .   o @ 1 j W W 2 $ .   . . . o . . .     . . o o O O & O O o .         . . o O O & & ",
"o o o O O o @ o o . . + 0 E O._ H $ X X . . o o = q ^ O.! r $ X   .   . . .       . o o o O & - - * & o .           o O & * > > ",
". . . X o O o o o . X + 0 S  .[ M % X   . . O @ < E O...' A $ X       . .     .   . o + O = - - > - * O +           o O * - ; ; ",
"      o o o @ O o o o @ % r U U M # X X . o $ 1 t W O...o.r $ + . .       . . . o o o o O @ = * - - * O o .         . O * * > ; ",
"        . . o o O O O = < 0 6 6 % X X   + @ 0 t E _ ) _ h e = @ o .     . . o O O O O O o o O & & * & O o o . .   . . o O = * = ",
"            o O O & - = = = $ # X     X + 0 A ' O.) x k d 1 = @ o . . . . . O & - * O o o + . o o O O o o o o .         o o o O ",
"              o & * > > = @ X X       X # 6 ' ..+.2.v u > > - @ O o . . . o & - > - = o .       . . o o @ O o o . .       . . . ",
"            . o & - ; ; & O   .       X # B [ ,.5.2.k , ; > = & @ o . . . o & - ; > * o .           o o O O @ o .           .   ",
"            . o & > ; ; * o .         X # G [ ,.6.2.v , ; > * * @ o . . . o * ; ; > * o .           . o O @ O o . .             "
};
