/* XPM */
static char *c7d49f9e96214deb974388a814355a6b7GEf8HXYiCAtCSQw[] = {
/* columns rows colors chars-per-pixel */
"61 64 191 2 ",
"   c None",
".  c black",
"X  c #010101",
"o  c #000102",
"O  c gray1",
"+  c #010206",
"@  c #040404",
"#  c gray2",
"$  c #040406",
"%  c #010208",
"&  c #16130C",
"*  c #070A16",
"=  c #070C1E",
"-  c #1D1910",
";  c #1E1A11",
":  c #1F1C13",
">  c #221E13",
",  c #231E13",
"<  c #231E14",
"1  c #242016",
"2  c #252116",
"3  c #282418",
"4  c #282419",
"5  c #292419",
"6  c #040A20",
"7  c #050B25",
"8  c #070D27",
"9  c #080E24",
"0  c #080E25",
"q  c #080E26",
"w  c #050C28",
"e  c #060C28",
"r  c #080F2C",
"t  c #09102B",
"y  c #09102C",
"u  c #060F31",
"i  c #091131",
"p  c #0A153F",
"a  c #072234",
"s  c #09203B",
"d  c #07283E",
"f  c gray13",
"g  c #2D2D2D",
"h  c #37342C",
"j  c #4A412C",
"k  c #4E432C",
"l  c #4E442C",
"z  c #5B4F34",
"x  c #685A3A",
"c  c #6A5C3B",
"v  c #6B5D3C",
"b  c #6D5F3D",
"n  c #6E603E",
"m  c #091443",
"M  c #0B1642",
"N  c #0B1643",
"B  c #0B1746",
"V  c #0B1747",
"C  c #0D1B52",
"Z  c #0B1A57",
"A  c #0C1B58",
"S  c #0C1B59",
"D  c #0C1B5A",
"F  c #0D1C59",
"G  c #082C44",
"H  c #082D45",
"J  c #0D1E63",
"K  c #0D1E64",
"L  c #0F226E",
"P  c #0F226F",
"I  c #0F2270",
"U  c #0F2476",
"Y  c #102371",
"T  c #102372",
"R  c #102475",
"E  c #102575",
"W  c #102476",
"Q  c #102478",
"!  c #102579",
"~  c #10267D",
"^  c #11267E",
"/  c #11267F",
"(  c #12277F",
")  c #0D367E",
"_  c #2C3E73",
"`  c #515151",
"'  c gray32",
"]  c gray34",
"[  c #5C5B57",
"{  c #585858",
"}  c #796A44",
"|  c #7A6A45",
" . c #7B6B45",
".. c #6D7959",
"X. c #6E7959",
"o. c #5B6A6E",
"O. c #5B6B6E",
"+. c #6D6D6D",
"@. c gray46",
"#. c #777775",
"$. c #7D7B75",
"%. c #7E7B75",
"&. c #83724A",
"*. c #8D7A4F",
"=. c #8E7B4F",
"-. c #807456",
";. c #817456",
":. c #8E7C50",
">. c #8F7C50",
",. c #907D50",
"<. c #927F52",
"1. c #867E6C",
"2. c #BEB811",
"3. c #BFB911",
"4. c #98992A",
"5. c #AAAB30",
"6. c #ABAC30",
"7. c #D6D013",
"8. c #968355",
"9. c #9A8555",
"0. c #9A8556",
"q. c #9D8958",
"w. c #9F8A59",
"e. c #A08B59",
"r. c #A18B5A",
"t. c #A9935E",
"y. c #8F8774",
"u. c #908774",
"i. c #988D74",
"p. c #988E74",
"a. c #9C9073",
"s. c #B09963",
"d. c #B19A63",
"f. c #B29A64",
"g. c #B39B64",
"h. c #B69E66",
"j. c #B49E6A",
"k. c #AB9B73",
"l. c #BEA46A",
"z. c #BEA56A",
"x. c #B8A373",
"c. c #C6AC6F",
"v. c #C7AC6F",
"b. c #C1AA72",
"n. c #CCB172",
"m. c #122780",
"M. c #122984",
"N. c #122985",
"B. c #122986",
"V. c #122988",
"C. c #122989",
"Z. c #132B8C",
"A. c #11348E",
"S. c #132D95",
"D. c #142D95",
"F. c #142E96",
"G. c #142E97",
"H. c #15309E",
"J. c #133B9F",
"K. c #1530A1",
"L. c #1632A4",
"P. c #1734AC",
"I. c #1736B2",
"U. c #1939BC",
"Y. c #193ABE",
"T. c #0A568A",
"R. c #104298",
"E. c #314682",
"W. c #0B629D",
"Q. c #1249A9",
"!. c #124AAA",
"~. c #0F52A1",
"^. c #2542A9",
"/. c #2542AA",
"(. c #0C69A7",
"). c #0E65B1",
"_. c #1063BB",
"`. c #0E75BA",
"'. c #0E75BB",
"]. c #0E76BB",
"[. c #0D77BE",
"{. c #1A3BC2",
"}. c #1A3BC3",
"|. c #1B3ECC",
" X c #1B3ECD",
".X c #1B3FD0",
"XX c #1C41D5",
"oX c #1C41D6",
"OX c #0F7CCE",
"+X c #1071C6",
"@X c #0F85D4",
/* pixels */
"                                                                                                                          ",
"                                                                                                                          ",
"                                                                                                                          ",
"                                                                                                                          ",
"                                                                                                                          ",
"                                                                                                                          ",
"                                                                                                                          ",
"                                                                                                                          ",
"                                                                                                                          ",
"                                                                                                                          ",
"                                                                                                                          ",
"                                                                                                                          ",
"                                                                                                                          ",
"                                                                                                                          ",
"                                                                                                                          ",
"                                                                                                                          ",
"                                        . . . . . . . . . . . . . . . . . . . . .                                         ",
"                                        . . . . . . . . . . . . . . . . . . . . .                                         ",
"                                    . . / H.H.H.H.H.G.! P Y P Y I ! D.H.H.H.H.H./ . .                                     ",
"                                    . . K.oXoXoXoXoX XK.D.G.D.G.D.L.|.oXoXoXoXoXK.. .                                     ",
"                                    . . K.oXoXoX XY.^.o...........O.^.Y.|.oXoXoXK.. .                                     ",
"                                    . . K.oXoXoX}.H.E.6.7.7.7.7.7.6.E.H.}.oXoXoXK.. .                                     ",
"                                    . . K.oX|.Y.P.Z._ 4.2.2.3.3.3.4._ Z.P.Y.|.oXK.. .                                     ",
"                                    . . K.|./ . . . . . . . . . . . . . . . / .XK.. .                                     ",
"                                    . . C.I.! 6 6 6 6 6 6 6 6 6 6 6 6 6 6 6 ! I.C.. .                                     ",
"                                    . . u m J D.D.D.D.D.D.D.S.D.D.D.D.D.D.D.J m u . .                                     ",
"                                    . . . + D oXoXoXoXoXoXoXoXoXoXoXoXoXoXoXZ + . . .                                     ",
"                                    . . . . 7 D A D D D S S S S S S S S S S 7 . . . .                                     ",
"                                    . . . . . . . . . . . . . . . . . . . . . . . . .                                     ",
"                                    . . f g g g h j l l l l k l l l l j h g g g f . .                                     ",
"                                    . . ' +.+.+.1.j.z.z.z.z.z.z.z.z.z.j.1.+.+.+.' . .                                     ",
"                                    . . { @.@.@.u.b.n.n.n.n.n.n.n.n.n.b.y.@.@.@.{ . .                                     ",
"                                    . . { @.i.n.:.- < e.n.n.n.n.n.w.> - >.n.p.@.] . .                                     ",
"                                    . . [ 1.i.n.:.- < e.n.n.n.n.n.w.> - >.n.a.%.[ . .                                     ",
"                                    . . ;.k.x.n.=.- > e.n.n.n.n.n.w.< - >.n.x.k.-.. .                                     ",
"                                    . + 0.n.n.n.=.- < e.n.n.n.n.n.w.< - >.n.n.n.9.. .                                     ",
"                                    . . 0.n.n.n.t.x v g.n.n.n.n.n.f.v x t.n.n.n.9.. .                                     ",
"                                    . . 0.n.n.n.n.n.n.n.n.n.n.n.n.n.n.n.n.n.n.n.9.. .                                     ",
"                                    . . x *.*.:.:.:.=.=.=.=.=.>.:.:.:.:.:.>.=.=.c . .                                     ",
"                                # + . . & > - - - - - - : - - - - - - - - - - - & . . # #                                 ",
"                                # @ . . . . . . . . . . . . . . . . . . . . . . . . . # .                                 ",
"                                # 1 e.h.h.f.v # d (.[.[.[.R.B.R.[.).A.W r # n d.h.h.w.1 #                                 ",
"                                @ 3 f.n.n.v.} # H [.@X@X@X!.D.!.@X+XL.M.i # } c.n.n.s.3 #                                 ",
"                                @ 3 f.n.n.b.} # H `.@X@X@X!.D.!.@X@X_.~.s #  .c.n.n.s.3 #                                 ",
"                                + 4 f.n.n.c.} @ G [.@X@X@X!.F.!.@X@X@X`.G # } c.n.n.s.3 @                                 ",
"                                # < &.8.9.8.z # a T.W.W.W.) I ) W.W.W.T.a # z 8.8.8.&.: #                                 ",
"                                # # # # # # # # # % % % % % % % + % % % $ # # # # # # # .                                 ",
"                                . # # # = 9 9 7 8 w w w w w 8 7 7 7 w w 7 q q q = # # # #                                 ",
"                                    # # D W E E E E W W U W U W W E W W E E E E S # #                                     ",
"                                    # # E G.G.D.D.G.D.G.F.F.G.G.G.G.G.G.D.G.D.S.Y # #                                     ",
"                                    # # Y G.D.G.D.G.M.M t t t t t M M.G.G.G.D.H.Y # #                                     ",
"                                    # # Y D.G.D.G.G.( 9 # # # # # 9 ( D.G.D.D.D.Y # #                                     ",
"                                    # # p C C C C C B * # # # @ # * B C C C C C p # #                                     ",
"                                    # # # # # # # # # # #       # # # # # # # # # # #                                     ",
"                                    # # # # # # # # # # #       # # # # # # # # # # #                                     ",
"                                                                                                                          ",
"                                                                                                                          ",
"                                                                                                                          ",
"                                                                                                                          ",
"                                                                                                                          ",
"                                                                                                                          ",
"                                                                                                                          ",
"                                                                                                                          ",
"                                                                                                                          "
};
