/* XPM */
static char *_c0c20ea6d1a491a96a820ac3adc049fxWFwZZqa2C2N6J9g[] = {
/* columns rows colors chars-per-pixel */
"49 64 84 1 ",
"  c None",
". c #000101",
"X c #090606",
"o c #0B0A06",
"O c #070708",
"+ c #080708",
"@ c #070809",
"# c #0C0A0A",
"$ c #140E07",
"% c #130E0D",
"& c #191107",
"* c #1B1208",
"= c #120E10",
"- c #1C1312",
"; c #1F1817",
": c #221609",
"> c #2C1C0A",
", c #321F0B",
"< c #221615",
"1 c #251817",
"2 c #281917",
"3 c #241919",
"4 c #2B1B1A",
"5 c #321E1D",
"6 c #34200B",
"7 c #39230C",
"8 c #34201F",
"9 c #38211F",
"0 c #2F2020",
"q c #342220",
"w c #3C2422",
"e c #3B2827",
"r c #3F2A29",
"t c #41270C",
"y c #462A0D",
"u c #4B2C0D",
"i c #53310E",
"p c #5D360F",
"a c #573410",
"s c #5D3710",
"d c #673B0F",
"f c #623910",
"g c #6A3E11",
"h c #412624",
"j c #442926",
"k c #482A27",
"l c #452D2B",
"z c #4B2D2A",
"x c #512F2C",
"c c #4F312E",
"v c #54312E",
"b c #4E3331",
"n c #553532",
"m c #5B3531",
"M c #573936",
"N c #5D3936",
"B c #573A38",
"V c #5B3B39",
"C c #603733",
"Z c #623936",
"A c #653D3A",
"S c #744413",
"D c #794613",
"F c #7E4813",
"G c #65413F",
"H c #69413E",
"J c #654341",
"K c #6B4542",
"L c #704946",
"P c #834C16",
"I c #884F16",
"U c #8D5116",
"Y c #925417",
"T c #995717",
"R c #9D5916",
"E c #A35C17",
"W c #A75F18",
"Q c #A96017",
"! c #A76018",
"~ c #AC6118",
"^ c #B66719",
"/ c #B76819",
"( c #B96919",
") c white",
/* pixels */
"              %O#%%%%#O#                         ",
"            NAv<5mvmmj%j<#                       ",
"          %2xLm1wZZKAx=xvh-%                     ",
"        O3llqJx<5NMVAk%xz8hl3O                   ",
"       #-nZMw4-#%3<33-O-19mHl<#                  ",
"      4wqwmx2O..........O<mAw5lq        FPPF     ",
"     4MAvw2-O............X-29xZn4   $fPPTEETP    ",
"    25nn5<O.................<8kzqq XtSYIW((WPFF  ",
"   1z552......................;43j>>DYQY!((!PYUP ",
"  <lck-.........................otIUU~^Y!((WY^~IP",
" #w8<#O.........................,F^~U~^Y!((WY^~IF",
" #lmv-..........................6I(/U~^Y~((WY^~IP",
" #jGA-..........................6I//U~^Y!((WY^~IF",
" @<lm-..........................6P/^U~^Y!((!Y^~IF",
" #52-O..........................6P//U~^Y!((WY^~IP",
" #kzk%..........................6I//U~^Y!((!Y^~UF",
" #lAA-..........................,I^^YW/Y!(/!Y/~IP",
" #4lj%..........................,P^^UW^Y!((!Y(~IF",
" @;31#..........................:g^^UW/Y!((!Y/~IF",
" %bAm-..........................O>P^Y~/Y!(/!Y/~IP",
" %zHA-...........................O:PI~/Y!((!Y/!IF",
" #kmx-...........................#:tP~/Y!((!Y(!IP",
" #q4-+..........................O,TEU!(Y!((!Y(~IF",
" O-ln-..........................>D^^U~/Y!((!Y(~IP",
" #wNK3..........................,I^^I~(Y!((!Y/~IF",
" #kmA<..........................,I(^YW(Y!((!Y(~IF",
" #2wx-..........................,I(^U~^Y!/(!Y/!II",
" @<qq%..........................,I(^UW^Y~((!Y(!IH",
" #kAw%..........................,I(^U~(Y!((!Y/~IU",
" #kZM-..........................,I^^U~(Y!((!Y/~II",
" #wzm-..........................,I(^U~^Y!//!Y/~IF",
" O#%h-..........................,I((UW^Y!//!Y/~UF",
" #hx1O..........................,I(^U~^YW(^RU^QIP",
" %kCx-..........................,I(^U~^YW(P>yQQIP",
" #hmm-..........................,I(^U~^YW(Ri&gRIF",
" +145#..........................,I^^U~^YQ(^D:FEIP",
" #288%..........................,I^^U~^YQ(U77~~IF",
" #kmm-..........................,I(^U~^YQPppuDRIP",
" #vZC<..........................,I(^U~^YQiuRiuYIF",
" =Mnl-..........................,I((U~^YQdiPipTIF",
" #l4=O..........................>D^^U~(YW(D*u~~IP",
" @-hn-..........................X,R^U~^YQ(^TI^~UF",
" #hmZ<..........................Xo>RI~^YW(^WY^QIP",
" #hmH3...........................X&uP~^YQ((WY^QIF",
" O<4B3..........................X>DFI~^YQ((!Y^~UP",
" +5w0#..........................*d^^U~^YQ((WY^~IF",
" #kCk%..........................,I^^U~^YQ((!Y^~IF",
" #lAA;..........................6I^^U~^Y!^(!Y^~IP",
" #qbl%.....................O....,I/^U~^Y!(/!Y^~IF",
" O%--X....X-----;;3;3=.O=--1-#..,I(/U~^Y!((!Y/~IP",
" #jmm-...#2xmmmNGJJJJc=<9jvJN4##6I(^U~^Y!((!Y^~IF",
" +wmZ;#-=3hllzBVVMmHLLml42jMM53q6I(^U~^Y!((!Y^~IF",
" O3jv-4zce22<<2422wvBJVcjw-2j20r7I^^U~/Y!((!Y^~IP",
" #r4-OwAHNnzzzzzzz8<<32---#82#4q7I/^U~^Y!((!Y/~IF",
" %lvk=wZZZZAKZKAZCvkkklkkkk2#O##6I/^U~/Y!((!Y(QIP",
" %nAZ-%----;1-3<-------;---X...O6FY^U~/Y!((!Y(QIF",
" @480#.OO.O.OOO..O.O.OO.OOO.O.O.&7yTU~/Y!((!Y/~UP",
" .O...O....O..O.O.O....O...O.O....oiFT~Y!((!Y/~IF",
"                                   #usIU!//!Y/QIF",
"                                    #*7aR//!Y/QII",
"                                     Oo$SFYRY/!IF",
"                                        *>ySF!!IF",
"                                  )        %7SDSD",
"                                             %==;"
};
