/* XPM */
static char *eb75f612dd1b4117a629216122fd297b1OXPZS2O2wQvn0dV[] = {
/* columns rows colors chars-per-pixel */
"64 64 88 1 ",
"  c #391F0D",
". c #341E10",
"X c #37200F",
"o c #3A200F",
"O c #362214",
"+ c #3C2414",
"@ c #362519",
"# c #3B2619",
"$ c #37291F",
"% c #3D291C",
"& c #372920",
"* c #3C2D23",
"= c #3E3026",
"- c #3D322A",
"; c #45240E",
": c #4A260E",
"> c #592C0F",
", c #432613",
"< c #4A2711",
"1 c #462A16",
"2 c #4C2A14",
"3 c #412719",
"4 c #452C1B",
"5 c #4B2E1B",
"6 c #522D14",
"7 c #5A2E13",
"8 c #522F19",
"9 c #4F3016",
"0 c #46311E",
"q c #4C311D",
"w c #553016",
"e c #5C3116",
"r c #54331C",
"t c #5B351B",
"y c #56381E",
"u c #5C391D",
"i c #643416",
"p c #673817",
"a c #6B3817",
"s c #62361A",
"d c #683719",
"f c #633A1C",
"g c #6B3B1C",
"h c #723E1D",
"j c #422E21",
"k c #482F20",
"l c #443225",
"z c #4B3424",
"x c #4E3826",
"c c #44352A",
"v c #49362A",
"b c #46382E",
"n c #4C392C",
"m c #533622",
"M c #593621",
"N c #533925",
"B c #5B3B23",
"V c #533C2B",
"C c #5A3E29",
"Z c #433730",
"A c #463931",
"S c #4C3D32",
"D c #513F32",
"F c #623D22",
"G c #693F21",
"H c #623F28",
"J c #6C411F",
"K c #75411D",
"L c #7A441E",
"P c #5D4125",
"I c #56412C",
"U c #5B422C",
"Y c #5D482E",
"T c #4F4135",
"R c #534233",
"E c #5B4531",
"W c #5C4932",
"Q c #654224",
"! c #6B4323",
"~ c #63442B",
"^ c #694629",
"/ c #65492B",
"( c #6C4B2B",
") c #724622",
"_ c #734925",
"` c #7B4A21",
"' c #734B29",
"] c #644B30",
/* pixels */
"WW]('QFt9fGGGfghGmsMMrkz8e<<<;<kMkvVvjvcclcnnmNbbVC^!'~~!!)!uIRT",
"~((((QJJuwqyuMBGFmvzmzzz58:683kMdMMCVkcjkcccNMBnnCHCV!FBMB~)JNbS",
"U/(PPQftrrzzBmxNHMzzllzmk5<k8lzFFvMMvvl=jlcckFssFFBzlq6tf!/)!xxb",
"nnByIIBrqVNBdtznVmZZZkllkz5kvkzMFmnVvc=-lcvvmMdaeBqklkmsfQ!KQQNn",
"zxNf(IVxmnCHmrNHHvvlcjcjllvvzzzMmkMMvmc-clvvmMFgFMvzlvmtFVBKQPVn",
"0qw!!QmllnV~NqMHHVmZ-ccllvzzm888kmmmm3kjzzmzkMgdFMNkkj68rxrsBNnn",
"qqrJJGr14jznzmB~VCmZccclvzzVMre8k88k5kkkkkkjqFGgsMMtm865lrwwxnCx",
"ryufGB51,#1lnCHHVCCcjcc-cvvmMMr<<<355mmkk45426sgsit67766qyrtmNBf",
"yBGFBNq2q54lxYCCVvvvlcvcccxCy9w98MMk4Nzz545,16Mddpe:>6228r6tNMBf",
",rMtNzq1q=0*cNzVvVVkczmmvxCFr29PVCH84vzzzj411qFFsit6>2;7r625xty2",
"+15ymllxz*%4jzzCvCCCnvvzzNNutyqqMVVk4-clzz5168FMMsmu627ii77r46<+",
"%+4mqqcbc---jjvnvVbnVvvvcbnV~BxxnZvkcc--l558etkccBzq2:6et6tr6:o@",
"%4l=lmncb-----lcnbbnDVcZbnnDIPvcbZccccccj455erzmxnz4,<,66:6ww,,1",
"%%4=-xv-c---*llccclvxnbAnCCDTxx-ZZAVnclll5j15rmtM85441672:>i2++#",
"X+lllbvbbc--**l=czvmxvSASRRDTII-bvSAvlllvq4,6trMq5<,44e>226w6+#+",
"o4q%=xnbbc--**%*lbnCnDSSDDDDTTT-ZDnvnnnvvl45rtm8qj2,rrei6662::,,",
"X%%%=nnvvbZvllcZcAbVCDCDTTTTTTTIITIIxxnvllzkmtt8kk3kmeeiee86<2,,",
"X@O%%cccvvvvvbSSSSCCHC]HITccI-TIIlxIVxnclzkkkmBtt8kkmr8it86653 .",
"XOO@%-cvZvZvzbbbDAVCHCC]RTT-blIIP*0rqncccNmkkmzt8mqt885re88523.,",
"oOO$$=lbclvcZcbbSSZzmHD]RcTTT=*Ix%0414vvvxmmckkrMqq884k8rkk55&..",
"++.&*lcvZlbvvZZZADnlnCCDTccTIIPyN%q055znnnMMvlzmmkk644222j333#. ",
"3&**-llzvvVbvbAZcxCmzmVVI=0ITRYJy99yMBNxbnBBvclvzlk225><,j.3 & 3",
"#%jlccvVbnnnvnDlvNxxBNvnT==xxIIyy0lP^)GNnVxxvllcbzjj566<3j3 .j& ",
".4vzlcvnvbbCVCCmCCCDVCDSIx009909999yCVVDDnvvclj*kkkjk76<<3j +##3",
"3kNvkZZvZZvnCCCmCUUVnRRSCV050yx9y99uJPTbDbvvnzvllk8k8e766<3 j3 &",
"lvzllccZccvnCCDvzrBAbC]DE/N59lINJuyJ/PTxvcczmnvzkzvk8e7>22,#j..j",
"zkvvcccvvcvvVSnk51kvbI^U](P9yPP/`uyJQQIvcvvNMnvvVMmmt676626k*.@j",
"kzkzvlcZZvZnnbvk2145rf!'_Py9PJJ/JJuJ)(IbcVFBBMuMnMMv887e6<2kkj &",
"3kzmkcvvcvZvnnvk140qrtG~/y99NPYYJP!L^Px-ccMsMsiMFMMmMee82<83j&%3",
"5kzMzcZvZcvcVVvZlcyrqyHE/u910ITWY/PJJxvljcmpddsdhgdieie<3k5kk%%3",
"5kkMVMvvcZcvVVcZvbBBBVUEQJ900IYTY/PJKPxlkk8GhLhhhddierk3k8k<<3.k",
"33jkvvZZc-cvZcZvcbRQUY~~!JJx0YYWWIY'_QP52MFhLhghhdddemljk8<+<o ,",
"MkkVnjvlcllvnmxbAVU^^!~/!J(!yITTWW]('QQuwfGGGfahgMsMM8kkre<;<,,5",
"FMMCxzcjjccvNMBnnCBCBQGBuB!)JNbTY((/(JJJs6qytMFGFNxzmvzzk8<763kM",
"MMNVnc-*jccvzFdsfGMzcqwtu!Q)JNxnI/^PPPuurrzzBmzNHMmclvzkkk<kkkkF",
"FmVVmc--clcvztdgsNqllqmuFQ^K!QNnnTuyIIBrxnNBfuznNNbcclllkz5kvkvM",
"8zMmnzj-ccmmmMsgsmzzllrsFVFK!PVnzxmJ^UVxmnV!mrNHCnlcclljllzzzzkM",
"kzMmz4kjlkvlzMGdFNNzzz57rzqfMnxn0qw!!QmqlvV~NkM^GCVc-cclllzvMm8r",
"55kz85zkkkkk8MGdsMMty2rqzrqwxNVN0qrgGJr1%jxnnqBHCCCvc-clvzmvmMe8",
"<<455zmkz45558sasit6w>22qtrtmNMuyyuBGB51,41knCF~VVVvclc-lvvmMt8<",
"rMmkkmqmz151,8sGFi7<76<<8r6tNNNfruQfBNq25540nUPVVvbcjcccZZVMM568",
"CmH84vcklj412qMFdis676<7t665zut22rBuzNq5ll=%zCxVmVNzbzNmvmCHt26F",
"CVV8k-bkzz5528MBMsMM6<6ii77r462,@1qymllzz%*4*zxVbVCCxbzzzMVMtMkk",
"nbvllZ-cc526ttzzcMzq2<77r6er6,o@%+4qqqcvb--=0*znvVnnnmbcvZvm~Bzn",
"cZcvccclj155emkmzzzk,,<66;7e6,,3%4l4lzncc-=*==-vvvvbVnvZcbnRCCnl",
"cZAnvclllkj15tmMMm5111876:672,33#%0-lnccbc--=-zcZvvvVnbbSUCRRDnc",
"AbSAvllcvk4,6emtr41,45ee6267<,3.X+ll-vbvv---**=-czzVxnSASURSTIRA",
"bTnvnvnclk558mmtkk2,5ree6822::;3+1q%lnnbbcc-**$=ZvvVnVSSSRTSSVSA",
"nnITnxIblllzrttrkk3kMteeee88<223 34*jbbvbvccclccZbbCCCDDDTSSSSSD",
"YznPPcxllzqzqmBte5k8m87ei8884j ..@@#&clbnbbvvASAASVCC~~~DDSASAbI",
"I00rqvbclxrzcmkt8kkMr558e8852 # .@.&#lbzvvvcvnAADnVCFCE(RSSZbvnU",
"v%451*lnxnrzzj5mMm888kk8r5k55*. + .&&jcvcccccccADbZvBCDWTSSSSx0n",
"q99000zxnnMmckkNvmk2333<53333.. ++@$*lcvccvcccAAASnzvCCITTccRIPB",
"y009yPNnnnBNvzlcvl5<587<33 3%* 3#%%&-ljbcvVnvnAZlVBvkknVTv0InRYQ",
"y9vPJ^JNnDxNccllvkl357><<%3+.& .@#jclclVnbSnnnncvCmmBVxSll0IxImu",
"929yPInIVnvvcllllkkkk766<j3.3333+1nlccAVvAvCNVCzCCDDCCVSI0009rqq",
"ry9t^Pnnnnzbkvzjllkk8e76623@3+@33zvzkZZvcZcVCCCVVYYnbRRnII009qxq",
"JutQ^ITxvbbvmvvbkzvm8e7><<33%@@%jzvllcZZ-cbVDRCzqrMbbC]RIYx9yxxy",
"LutJQ/IbbbmzBxvvnMmmt8766<2k%@@3kkvvlZlZbvvnCSxk52zvnC^Y]'P9yyYY",
"JJB)))IbbVFBFMMMmMmm8877666k33&3jmzzvllvcccbnvn52145rF!((Py9PJ)Y",
"/PJ_!NncczMfssttMFmmtee6<6<k%*3335mzvlvvccbbnnvl+50qryJQ/y99yPYY",
"/JPJJmv-llxpdssghgdieiek3kk3k3&35kzMzlvAbbvcxVbclzrrqrPW/f9%0IWI",
"]PPJ_Qxlj05ghLhhhddietk335525333k3kMvVvAc-vnnVbcbbCBIIPYPJ90*IWR",
"WYY__QB55ysh`Lghhdddemllk8<,<oo,33jvmmZZ--cnbvbbbAVQPPYYQJJy0YWW"
};
