/* XPM */
static char *_5aab314c99e406b928c7005d9c5e5e7rxGrGClcwxWkUvwC[] = {
/* columns rows colors chars-per-pixel */
"64 64 256 2 ",
"   c #3F3EE1",
".  c #4E33DD",
"X  c #6D36DD",
"o  c #5A3BE7",
"O  c #562FEF",
"+  c #7637EB",
"@  c #7136EB",
"#  c #344ED9",
"$  c #3957E8",
"%  c #3A55EE",
"&  c #2A69E6",
"*  c #3767EA",
"=  c #2A77E9",
"-  c #3A74EC",
";  c #3967F5",
":  c #2B77F6",
">  c #3B7BFC",
",  c #3777F8",
"<  c #376DDA",
"1  c #4948D9",
"2  c #4B56DC",
"3  c #5658DD",
"4  c #5749D8",
"5  c #654BDC",
"6  c #695ADC",
"7  c #7750DD",
"8  c #526BDD",
"9  c #6D67D9",
"0  c #484BE8",
"q  c #5948E8",
"w  c #4858E7",
"e  c #5858E9",
"r  c #494EF3",
"t  c #5748F6",
"y  c #4759F5",
"u  c #5959F7",
"i  c #6749E8",
"p  c #7748E8",
"a  c #635EED",
"s  c #6856EA",
"d  c #7757E9",
"f  c #674AF4",
"g  c #744CF4",
"h  c #7C4BF4",
"j  c #7A45F6",
"k  c #6758F7",
"l  c #745CF3",
"z  c #7957F8",
"x  c #4D63EB",
"c  c #4568E8",
"v  c #5767EA",
"b  c #4977EB",
"n  c #5574ED",
"m  c #5878EA",
"M  c #4868F7",
"N  c #5B63F3",
"B  c #5A64FC",
"V  c #576AF7",
"C  c #4C7CF4",
"Z  c #447CFC",
"A  c #4B7CFC",
"S  c #4775F6",
"D  c #5372F3",
"F  c #5B74F4",
"G  c #547BF5",
"H  c #5C7BF4",
"J  c #5C74FC",
"K  c #547CFC",
"L  c #5C7CFD",
"P  c #5474FC",
"I  c #6364EC",
"U  c #6D64EC",
"Y  c #6669E7",
"T  c #746CED",
"R  c #7B6CED",
"E  c #7665E8",
"W  c #6877E9",
"Q  c #7877EA",
"!  c #636DF2",
"~  c #6C63FD",
"^  c #6B6CFD",
"/  c #6767F7",
"(  c #7364F3",
")  c #7B6BF3",
"_  c #7C63FC",
"`  c #746BFD",
"'  c #7B6CFD",
"]  c #7667F6",
"[  c #6374F3",
"{  c #6C74F4",
"}  c #637BF4",
"|  c #6373FC",
" . c #6C74FD",
".. c #637CFC",
"X. c #6C7CFC",
"o. c #6B7CF4",
"O. c #7B73F4",
"+. c #737CF4",
"@. c #7B7BF3",
"#. c #7474FC",
"$. c #7C74FD",
"%. c #737BFD",
"&. c #7B7CFD",
"*. c #7373F3",
"=. c #883AF4",
"-. c #983AF7",
";. c #8936EC",
":. c #8953DE",
">. c #8564DD",
",. c #884AE8",
"<. c #954AE9",
"1. c #8658E9",
"2. c #9657E8",
"3. c #8849F7",
"4. c #964AF7",
"5. c #845BF4",
"6. c #835DFE",
"7. c #8956F7",
"8. c #945CFD",
"9. c #9656F8",
"0. c #A658F9",
"q. c #A852F4",
"w. c #8768E9",
"e. c #9865EA",
"r. c #8877EB",
"t. c #9878EB",
"y. c #8464FD",
"u. c #8B63FC",
"i. c #846BFD",
"p. c #8C6BFE",
"a. c #8667F3",
"s. c #9364FD",
"d. c #946CFD",
"f. c #9B6CFE",
"g. c #9867F7",
"h. c #837AF6",
"j. c #8374FE",
"k. c #8C74FC",
"l. c #847DFD",
"z. c #8B7CFE",
"x. c #8977F3",
"c. c #9373FD",
"v. c #9B73FD",
"b. c #937BFE",
"n. c #9B7CFE",
"m. c #9478F4",
"M. c #A46CFD",
"N. c #A766FC",
"B. c #B468FB",
"V. c #A374FE",
"C. c #A37CFD",
"Z. c #AB7CFF",
"A. c #A974FB",
"S. c #B877FD",
"D. c #A868EC",
"F. c #C475FC",
"G. c #1F89FB",
"H. c #3A88EC",
"J. c #2C85FB",
"K. c #3D84FD",
"L. c #3C8DFD",
"P. c #3887F7",
"I. c #2894FE",
"U. c #3B95FB",
"Y. c #2A8DEC",
"T. c #36A4FA",
"R. c #34ADFB",
"E. c #4C83ED",
"W. c #5883EB",
"Q. c #5696ED",
"!. c #4C83F4",
"~. c #4383FD",
"^. c #4C82FD",
"/. c #448BFD",
"(. c #4C8CFE",
"). c #4788F5",
"_. c #5383F3",
"`. c #5483FE",
"'. c #5C84FC",
"]. c #548BFE",
"[. c #5D8BFD",
"{. c #5987F4",
"}. c #4B93FD",
"|. c #4595FC",
" X c #5C92FD",
".X c #5698FA",
"XX c #4C91EC",
"oX c #6A85EA",
"OX c #7683E9",
"+X c #6998EF",
"@X c #6483FD",
"#X c #6C84FD",
"$X c #648BFE",
"%X c #6B8CFE",
"&X c #6886F4",
"*X c #7B82F4",
"=X c #7483FD",
"-X c #7B84FD",
";X c #748BFE",
":X c #7B8CFE",
">X c #7585F4",
",X c #649BFE",
"<X c #6796FA",
"1X c #7392FE",
"2X c #7A93FE",
"3X c #7B9BFD",
"4X c #7497F9",
"5X c #7792E9",
"6X c #57A6FB",
"7X c #53AAFB",
"8X c #68A6FC",
"9X c #74A3FF",
"0X c #7AA7FD",
"qX c #6AB3FE",
"wX c #6BA9F3",
"eX c #8785EC",
"rX c #8483F4",
"tX c #8484FE",
"yX c #8B84FD",
"uX c #838BFE",
"iX c #8B8CFE",
"pX c #8988F5",
"aX c #9383FD",
"sX c #9B83FC",
"dX c #948CFE",
"fX c #9C8CFE",
"gX c #9687F3",
"hX c #8492FE",
"jX c #8C94FE",
"kX c #8C9CFE",
"lX c #849BFB",
"zX c #9493FE",
"xX c #9C93FE",
"cX c #939AFE",
"vX c #9B98FC",
"bX c #9487EB",
"nX c #A384FF",
"mX c #A38BFF",
"MX c #A988FD",
"NX c #B28CFF",
"BX c #B784FF",
"VX c #A393FF",
"CX c #AA93FF",
"ZX c #A39AFE",
"AX c #AA98FC",
"SX c #B793FF",
"DX c #A083EF",
"FX c #88A5FF",
"GX c #97A7FF",
"HX c #87B8FF",
"JX c #93ADF9",
"KX c #A6A6FE",
"LX c #B5A8FF",
"PX c #B2B3FF",
"IX c #C386FE",
"UX c #D090FF",
/* pixels */
"3.3.3.h z ' z.xXxXgXr.t.r.w.E v y ; > S P ` f.B.S.V.#.c & & * $ m Q bXvXlXQ.H.}.J i.N.B.v.j.[ b = Y.!.=XmXSXMXsXuXv b A % r k k ",
"4.3.h p d s ) z.fXsXt.m.z.h.@.X.L M * % B ` s.9.f.c.;X'.~.P.Z M m >XvXgX5XoX).* B l 8.g.m.-X&Xb P.H.b o.b.mXMXfXuX#X$XC c y u r ",
",.p i s e e s R nXC.C.n.z.&.X.@X`.A M c w a l ) Y }  X}.L.L.~.Z _.;XVXVXfXzXX.v a g ( w.*X1X X}./.H.b W yXmXAXvXlX9X,X_.b P / u ",
",.d l ! F Y E d M.A.V.m.l...L K C C P D x N ! #X&X X6X|.U.L.L./.`.&XsXUXUXNXb.j.l ' Q *X+X8X8X8XE.b n +.pXgXvXkXFX+XQ.Q.{.m { #.",
"g.a.*...L [ T a.2.e.g.b.-X@X].(.[.@XL H H @X$X<X,X6X6X}.}././.~.`.X.aXUXUXBXV.p.] %.1X0XqXqXqXqXb D W +.rXQ OX5XwXwX+XwX+Xm W @.",
"IXMX-X.._.F T e.2.2.e.tX#X'.^.^.$X%X$X'._.].,X8X0X3X4X1X$X].^.A D %.m.D.S.BXV.p./ ..,XqXqXqX<X4X;X%.+.-X*XQ OX0X0XHXqX+X+XpXiXvX",
"IXZ.$.H H ..$.c.e.e.x.-X%X].].`.o.>X$X].).H..X4XkXzXaXaX%.! P L e ( e.2.e.A.n.$.F !.}.7XqX0XjXdXxXl.] &.*XQ 5XFX0XHXHX2XpXdXmXSX",
"0.s.( | ..=Xz.v.g.m.*X1X,X.X1X2XW Y b H.U.|.!.m h.a.1.7 4 1 # y k s 7 >.>.w.T #X].P.H..X0XFXMXBXnXi.s T { 8 8 m oXFXcXGXVXm.1.A.",
"4.4.d u B #.z.b.x.@.+X<X8X9X#XW O.W C |.U.L.H T 1.:.,.1.s 0 % y l _ w.9 9 Q =XL (././.C F E 7.4.f.5.s l %.X.} V W +.j.c.s.4.<.4.",
"-.3.g a ^ %.tXyXjX1XQ.Q.8X4X@.9 ) { !.L.L.).X.c.,.,.7 s e M P J ~ l T eXrX>X&X[.Z Z S v 5 X ;.X + p l `  .| N v u l 3.3.=.;.-.-.",
"-.4.g f u N | o.;X<X6XQ.+X4XgXm.U n C ~.(.L ` u.N.g.] F `.(.~.P &.tXjXGXGXlX;X$X[.P x 3 p =.=.;.=.p f e B | B e k z 3.=.-.-.-.-.",
"4.3.g 0 0 w w c [.8XqX8X+XQ r.m.*.D - S ^...' y.d.a.X.[..X}./.A ;XkXGXlXjXhX=XF K P I l 4.4.=.+ 9.h o 1 0 B J k z 8.0.4.-.-.-.-.",
"d z k w y * S C b Q.Q.+XOXQ t.k.uX..S < c | l.sXk.l.;X,X}.> : ^.%XlXFXjXgXzXuX} c @XiXMXS.0.4.3.+ j t 0 $ % V u z 8.0.q.4.4.4.3.",
"( ( B D S ^.(.}.).E.m W OXaXn.k.%.@XD * $ V l.fXLXdX=X@X].> , , L @X-XzXCXfXdXhXG L @.n.F.F.f.8.3.z k r $ $ y 0 f 3.9.4.q.9.d.u.",
"%.X.'.A /.L.|.U.8X<X&X@.x.aXc.) { ..L n b F } &.dXx.E v J @XA ; % w Y r.t.t.pX;X XW.9 >.D.B.e.5.f.z t y % ; M e l 7.9.q.g.v.z.pX",
";X%X[.]./.U.L.L.- H -XyXsXfXmXdXuX=XH n G ..@XY 3 *.Q 5 4 w M # r u l 7 1.r.@.&X X9XGXSXS.D.:.w.g z u M M ; V  .U 5.g.V.V.m.rX*X",
"%X$X$X[.~.= = = ^...&.w.x.fXzXeXuX-Xm b '.D v m m %X2X%.a e % y O @ + f q v A (.].;XMXS.F.D.t.r.i.] D S * < 2 [ +.&.z.c.c.m.tX*X",
"@X'.L `.~.> > > [.;XyXk.x.r.eXOXiXuX{.b G H ..:X1X3XcXjX' q q u O O O O r M K.L. X:XBXUXUXIXt.bX@.+.{.).E.b v 8 -X:XuXaXnXsXiX+.",
"..H G C A Z K.~.K #XyXv.m.r.r.Q l.tX@XD J #X-XuXo.+.l.mXf.+ o f t t O r M A }.}.{.*.D.F.UXF.DXdXhX%X}.U.|. X;X+.W +.*X@.O.x.z.yX",
"&X@XF n c * : - $ | k.C.V.c.w.R E O. .D J X.#.I %.*.k.MXA.,.X o t % % ; ; > K.!.} w.D.D.F.F.gXQ 1X.XT.U.7X0XGXzX@.-XhXkXvXZXfXb.",
"#X&X} F b * & # w u i.V.A.V.a.1.d l / x x | ! 3 W T a.f.N.9.j i r ; ; : : : = b *.c.B.B.B.Z.x.m b T.R.R.qXHXKXZXdXrXW 8 @.dXm.>.",
";X;X;X#XL C S * x a z s.M.M.f.u.5.z e # # y F v 3 Y E d 5.g.u.] M > : J.J.: P.F d g.B.N.A.nXyXm H.Y.R.R.7X9XzXmXmXyX+.W W r.n.n.",
">X2XhX:X#X..D M y a h 7.9.N.f.s.8.z k 1 # $ P P G #XuXiXaXz.&.| Z : G.G.I.J.C U :.<.<.q.V.aXuX%X7XY.Y.Y.E.o.b.nXE r.iXjXzXdXn.v.",
">XuXiX-X .F n c v k h 4.9.4.4.7.3.d k u # * A ^.c @XkXKXGXhX;X%X].L.I.I.T.}.#Xk.S.q.<.g.v.tX;X,X7XT.Y.XXm T w.d.C.p.T ) gXVXnXg.",
"-XiXiXyX-X-X| v e ( z 7.0.9.3.9.8.y.` u M , , ; A H ;XlXFXlX1X$X(.L.I.I.|.].#.u.F.F.0.9.U X.@X`.|.U.G 2 4 1.d.7 d.a.d 5 E u.k.n.",
"v *.' *.#.-XX.F w s g ,.9.4.3.8.6._ ~ V ; , , S D } X.+.=X2X;X@X& : J.L.P.b ) M.q.B.0.8.*.X.[.(.6X X%.a.p p 5.p.p d p X 7 d ( _ ",
"1 I ] ) j.yX-X{ v U d 1.2.9.9.u.y.' ^ V ; , , A v *.) d E &.&.{ - = = = b [ 5.9.q.q.f.c.%.G C !. XL l 7.<.p p y.p.f.8.3.3.i i a ",
"1 q l ] ' #.X.X.=X#.) 1.9.s.g.s.' #.%.J Z , > K e ( R d a ] *.v C , = * D ] 5.<.q.2.u.yX=XC c b D #.5.,.<.p 4 i u.d.8.9.5.d i e ",
"~ l l z ~ a { :X:X%.R w.c.V.v.a.( { X...Z > ~.L ^ 5.1.l U U I V > K.~.S v l 9.9.2.p R -X%XG C _.x yXV.9.,.i 3 s s d 3.,.y.i._ ` ",
"` k z y.i.( [ ;X:X>Xh.b.n.nXnXc.*.{  ...Z , : M #.p.u.i.( v | @XK.K., y e z 8.2.9.a.T X.$X{.!.G Y ] s.s.p.( v I _ u.7.5.p.j.' ' ",
"f f f z z ] v 2 #X&XiXZXmXmXMXaX&.+.^ J Z : & $ ^ p.k.$...'.[.].L.J.& $ k u.g.1.V.b.%.o.@X[.m 8 O.6 7 p.tX=X..{ j.f.s.u.' ] l s ",
"k z t o u  .| 8 &X>XzXAXnXnXmXaXtX{ v J A > , ; w $.tX%.'.].].~.: : ; w s u.V.S.Z.mXtXX.@X%X@X2 l.) k.yX-X;X;X=X) b.b.j.&.&.O.a.",
"y.z f 0 % ; A `.n v W m.nXC.C.b.uX#X| L A A A `.n ..;X2X4X$X[.A % y y B ' p.s.9.3.6.i.uX%. .I a *.uXkX-X+.+.rXtXl.iXFX2Xo.eXgX9 ",
"V.k.#.V ; ; > ^.%X>XQ bXnXBXZ.n.uX;X#X'.K S C `.G {.%X1X1X1X$X..u y r t f f 3.3.@ @ t t u u e w [ 1XFXJXcXjXyXz.*.W <XHXFXlXDXt.",
"n.b.%.| M & , Z $X&XQ r.sXNXNXmX$.=X#X[.^.Z > (. X$X%X#X2X:X:X%.B u u u f + =.-.+ @ O # $ M P J n {.%X3XhXuXyXpXQ m &X0XJXJXKXAX",
"mXaX&.@XZ ; - Z [.#XQ Q r.MXMXn.x.@.} H ~.- H.P..X,X1X=X&.l.k.j.t u t f h =.-.=.=.@ o r M ^.]. X[.&X$X%X2XpXm.yX+.oX&X8XHXJXLXLX",
"LXZXhX;X`., - - c m T Q r.mXAXAXfXrX{ m - = = = /.[.%X+.) a.8.u.f o o i h 4.-.;.3.j u M , , P.~.!.{.&X1X2XeXr.h.*XoXW.Q.0XJXPXPX",
"LXZXhX2X$X].A A < x v 9 Q gXVXLXVXyXW G ).Y.Y.= - _.>X) d 1.2.8.6.f o X h 3.4.4.3.z u M , : & & < < b oX>XpXpXyXuX>Xm &X3XlXcXLX",
"ZXbXpX;X@X'.`.P P [ { @.Q Q r.r.sXh.oX{.).P.H./.b @X&.R 1.<.<.9.9.j o i d h 7.z _ / P > , : : & - b oXW Q yXZXZXtX:X} W.oXoXOXvX",
"bXvXkX*XX...J P V B #.iXdXyXQ Q iXpX>X'.}.P.L./.[.-Xk.a.1.<.<.4.8.z z z i.i.i.p.` P S > L./.~.Z !.$X;X+.R z.b.aX*.uX=Xc W >XrXpX",
"bXbXzXzX:XX.|  . .B ` $.#.yXdXrXrXuX2X$X).(..X`.[ O.b.C.A.N.9.1.6.i.~ a l.yXl.yX=XL Z : J.J.~.^.'.#XI h.x.7 E j./ e X.| v *.yXdX",
"bXeXQ l.l.{  .l.` ` ~ u a *.yXcXzXcX1X[.]..X].L +.j.V.BXBXS.V.d.j.l.#.[ uXjXtXjX=XL > : : J.K.].D =XiXj.d p 7 s e w  .=X%.$.O.z.",
"dXQ R yXyX) ( ^ u ~ u q k I I tXiXjX;XG ^.G C } @.a.e.BXBXC.c.j.[ #XD m &X-X*XyX-X@XZ , : J.P.Z D #.mXd.a.5.5 6 e 2 N  .l.$.( yX",
"dXh.r.gXaXO.U U 0 k k u / e 2 Y T jX;XG C - c X.yXx.e.D.BXC.x.@...[.b b } oXQ h.-X..A P.L.J.P.- #X] p.v.A.M.i I e 2 w e $.' U z.",
"iXyXrXh.x.x.h.j.U e k | N v v Y U aX:X..K S c @XyXx.e.e.t.sXgXrX{.'.b b m oXW Q %.} b : P./.L.b :Xj.d g.S.v.j.! w x x N $.l.U R ",
"tXiXxXxXxXxXdXl.j.v / X.| X.;X{ ( i./ N `.^.C ..uXx.w.>.w.bXpXOX&X&XW.W.8 oXOXW hX%XC = = P.~.b ! b.w.2.g.g.dX;X[.K ..| %.yXO.O.",
"{ @.zXZXKXVXgXh.T I | =X#X#X@X+.1.d e w M Z A G uXvXCXt.DXCXZXpXhX:X1X>X5X0XFX5X0X9X.XH.= - b v Y b.A.e.e.m.iX3X9X`.@X..&.tXh.h.",
"v 3 Y yXVXmXgXb.T *.N V %X..F &.c.6.u w $ & M C =XzXKXZXZXLXLXGXhX>X+X4X0XJXFX4X1X8X6X}.- E.G F uXaXNXt.t.x.9 #X$Xc L :X-Xl.R E ",
"N w x $.fXMXA.V.5.s w w v X.%.i.nXc.I 0 ; ; M M } 2XlXlXJXPXPXJXHX9X8X0X0X4X0XFX9X8X6X6X.XE.m m 8 rXLXAXsXgXR *.| x M | &.l.a.w.",
"B e 2 I k.Z.S.B.s.l e * c P #.$.) j. .P M % % M n &XoX5XJXJXKXKXHXqX8X3XlX2X>X>X9XwXQ.Q.XXXX[.;XrX@.ZXAXCXaXR $.X.w 0 J tXfXb.w.",
"^ e 1 3 ) nXBXZ.c.$.V c c n { &.x.yX=XG ; ; M @XF &XoXoXpXcXxXzX4X+X+X+X2XhX:XoX+XQ..X.XQ._.@X;XvXaXnXCXMXt.R &.| M M J -XyXm.r.",
"` U e 6 a.nXNXC.b.&.H C b C #XuXh.iX;X[.].A S B ^ #.T 9 Q x.z.iXoXoXW >X-XiX:X>X<X$X,X,X[.G L #.b.C.MXC.t.>.R +.#XL L L =XtXpXr.",
"' ' U 6 w.sXnXaXuX=X[.].).E.@X:XpXpX%X].}./.M y ` ' s 4 4 l j.aX>X*X*X@.$.&.&.X.%X'.'.$X#XX. .` 1.g.D.A.e.>.Q @.%X`.S G ;XcXxXbX",
"aXk.E 9 R rXfXdX-X%X[.].XXE.m oXvXjX&XE.P., ; B ` y.z f i s l $.uX*Xh.O.( U I F x 8 n =XuX&.k f 3.:.:.A.MX>.9 v $X'.!._.;XcXZXgX",
"sXk.R E 9 R h.iX:X$X[.,X<X@XoX>Xr.eX+X.X}.).c w f 6.s.6.z k k ~ @.Q ) a.l s e v # # 0 / i._ f O ,.,.,.Z.BXn.Q 8 G `.].G } uXmXCX",
"b.i.E 6 6 9 W OX2X#X$X%X2X1X-XyXr.r.8 b }.].P / i z 7.g k u | uXtXh.i.i.y.i e y e 2 . q f j + @ X 3.7.Z.NXCXxXv S S * c [ iXmXDX",
"aXz.) 6 T l.@.=X:X2X2XuX#.#.$.aXMXsX&X{..X X..v z 7.7.z a e v G +.yXb.p.i.' / u | u f @ X @ 3.j . @ 5.u.c.CXvX=XM c ; x e T aXSX",
"xXz.T T h.@.*XhXX.#.#.' z l l z a.j.%.m E.'.X.' d.u.u.i./ c c 8 %.yXaXc.p.j.^ B B k y.7.@ @ + j o t z i.p.b.yX-XV y % $ 1 s d.SX",
"zXdXh.R Q *.{ =X! u s g z z h p 5.j.%.F b } %.j.y.5.6.j.X.G b b &XrXaXk.p.' | B N ~ s.N.=.+ @ @ k u ~ j.i._ ' l.V y y y 0 4 d c.",
"#.zXxXh.T @.*.m N s f h 3.3.3.z z $. .n n =XtXa.d p s /  .'.E.b W @.k.p.y.~ N y w e 3.g.0.3.+ i B y ^ l.k.E ] $.^ u M B N e i E ",
"Y cXKXfXyXiX=X{ v s i j 3.3.j g f / J v n %.z.p.5.h f u V P G m W Q x.a.a.s e w 1 1 i 8.M.s.l / V M | -Xz.a._ U ~ u r y u u I ` ",
"-XcXZXKXvXpXQ =X*.k j =.+ + j f q B J P v I ) p.6.6.k u M S G {.W r.m.v.y.l N x x I a.g.f.u./ L S M ..l.k.c.a.p s o % y B | %.=X",
"4XpXgXdXxXeXOX:XtXj.7.7.3.3.f k r M L L v v l 6.u.z k u y M P H OXr.v.V.d._ [ F ..uXb.v.n.i.v G - - J tXaXv.g.d i q r y P X.X...",
"W Q 9 9 pXvXcXkXiXz.s.8.8.3.z u y M M '. .T a.6.6.y.~ u y % y n Q eXC.Z.f.i. ...#XjXaXn.nXyXm C - * H iXmXC.f.d._ k u r y P ..L "
};
