/* XPM */
static char *_18d9167d2f54826a86ada228823023cPdEQoesmyM98LjP7[] = {
/* columns rows colors chars-per-pixel */
"64 64 214 2 ",
"   c None",
".  c #6A662F",
"X  c #6B662F",
"o  c #7E7828",
"O  c #7F7928",
"+  c #7E7929",
"@  c #656130",
"#  c #656131",
"$  c #666130",
"%  c #666131",
"&  c #656230",
"*  c #656231",
"=  c #666230",
"-  c #666231",
";  c #666331",
":  c #676431",
">  c #686432",
",  c #706B33",
"<  c #706C33",
"1  c #716C33",
"2  c #736E32",
"3  c #716C34",
"4  c #827B27",
"5  c #827C27",
"6  c #837C27",
"7  c #847D27",
"8  c #857E27",
"9  c #807928",
"0  c #817A28",
"q  c #817B28",
"w  c #827D28",
"e  c #837D29",
"r  c #958D22",
"t  c #928D3B",
"y  c #918B3C",
"u  c #928C3C",
"i  c #958F3D",
"p  c #99933D",
"a  c #9A953E",
"s  c #9B953E",
"d  c #9D973E",
"f  c #9E973E",
"g  c #9E973F",
"h  c #9D983E",
"j  c #9D983F",
"k  c #9E983E",
"l  c #9E983F",
"z  c #9F983F",
"x  c #9E993F",
"c  c #A09935",
"v  c #A29C3B",
"b  c #A39D3B",
"n  c #A69F3A",
"m  c #A29B3C",
"M  c #A29B3D",
"N  c #A29C3C",
"B  c #A39C3C",
"V  c #B7AE2D",
"C  c #B5AC2F",
"Z  c #B6AD2E",
"A  c #B6AD2F",
"S  c #B7AE2E",
"D  c #B7AF2E",
"F  c #B8AF2D",
"G  c #BBB12C",
"H  c #BBB22C",
"J  c #ABA332",
"K  c #AFA733",
"L  c #ABA334",
"P  c #AAA237",
"I  c #AAA337",
"U  c #ABA436",
"Y  c #ACA534",
"T  c #ADA634",
"R  c #AEA634",
"E  c #AFA734",
"W  c #A7A039",
"Q  c #A8A039",
"!  c #AAA339",
"~  c #B0A832",
"^  c #B1A832",
"/  c #B1A932",
"(  c #B0A833",
")  c #B2A932",
"_  c #B2AA32",
"`  c #B4AB30",
"'  c #B5AC30",
"]  c #B6AD31",
"[  c #B8AF30",
"{  c #B9B13E",
"}  c #CBBE11",
"|  c #C0B628",
" . c #D4C60D",
".. c #DACB0B",
"X. c #DBCD0B",
"o. c #DFD00A",
"O. c #DFD10A",
"+. c #DED00B",
"@. c #DFD10F",
"#. c #D7CA10",
"$. c #DFD115",
"%. c #DFD214",
"&. c #ECDC06",
"*. c #EDDD06",
"=. c #E0D10A",
"-. c #E0D20A",
";. c #E0D20C",
":. c #E2D40E",
">. c #E5D70E",
",. c #E6D70E",
"<. c #E6D808",
"1. c #E7D808",
"2. c #E7D80F",
"3. c #ECDD0A",
"4. c #EDDE0B",
"5. c #EEDF0A",
"6. c #EFDF0A",
"7. c #EEDF0B",
"8. c #E9DA0D",
"9. c #EADB0C",
"0. c #E8D90E",
"q. c #E9DA0E",
"w. c #EBDC0C",
"e. c #EBDD0C",
"r. c #EBDC0D",
"t. c #ECDD0C",
"y. c #EDDF0F",
"u. c #E1D313",
"i. c #E3D511",
"p. c #E4D611",
"a. c #EBDD13",
"s. c #ECDE19",
"d. c #ECDE1A",
"f. c #EFE005",
"g. c #EFE009",
"h. c #EEE00A",
"j. c #EFE00A",
"k. c #F6E603",
"l. c #F7E603",
"z. c #F5E505",
"x. c #F7E705",
"c. c #F5E507",
"v. c #F9E903",
"b. c #FBEB02",
"n. c #FCEB02",
"m. c #FBEC01",
"M. c #FDEC01",
"N. c #FFED00",
"B. c #FFEE00",
"V. c #FFEF00",
"C. c #FEEE03",
"Z. c #FEED06",
"A. c #FEED07",
"S. c #F1E208",
"D. c #F2E308",
"F. c #F3E308",
"G. c #F0E10A",
"H. c #F3E408",
"J. c #FDED09",
"K. c #FCED0F",
"L. c #FCEC12",
"P. c #F9EB1A",
"I. c #FBEC18",
"U. c #FAEC1A",
"Y. c #FAEB1F",
"T. c #FAEC1E",
"R. c #EADD22",
"E. c #F1E425",
"W. c #F7E920",
"Q. c #F6E926",
"!. c #F9EB22",
"~. c #F9EC20",
"^. c #F9EB25",
"/. c #F8EB27",
"(. c #F5E939",
"). c #F4E93D",
"_. c #A09A43",
"`. c #A09B43",
"'. c #A6A14D",
"]. c #A6A14E",
"[. c #A6A14F",
"{. c #B8B043",
"}. c #DED883",
"|. c #E1DC8F",
" X c #E2DE9F",
".X c #E9E380",
"XX c #E8E286",
"oX c #E6E194",
"OX c #E6E195",
"+X c #E5E196",
"@X c #E6E196",
"#X c #E6E197",
"$X c #E6E199",
"%X c #E5E19D",
"&X c #D6D3A1",
"*X c #D6D3A2",
"=X c #D5D2A7",
"-X c #D8D5A5",
";X c #D9D7AF",
":X c #DDDAB0",
">X c #DCDAB5",
",X c #E2DFAB",
"<X c #E1DEB2",
"1X c #E1DFB2",
"2X c #E1DFB3",
"3X c #E1DFB5",
"4X c #E2DEB5",
"5X c #E1DEB6",
"6X c #E0DDBB",
"7X c #E0DEBA",
"8X c #E0DEBC",
"9X c #E4E0A4",
"0X c #E2E0A8",
"qX c #E2E0A9",
/* pixels */
"                                                l l l l l l l _ e.V.N.V.N.V.N.N.                                                ",
"                                                l l l l l l l ^ e.V.V.N.V.N.V.N.                                                ",
"                                                l l l l l l z ` 9.V.V.V.V.N.N.N.                                                ",
"                                                T ( ( ( ( ( ^ H G.V.V.N.N.V.V.Z.                                                ",
"                                        l l g M 9.F.6.F.4.F.7.F.N.V.N.V.V.N.V.L.4X7X7XoX^.N.V.V.                                ",
"                                        g l g M F.V.V.V.V.V.N.V.N.N.V.N.N.V.V.L.8X8X8X#X^.V.V.V.                                ",
"                                        g l g M z.V.V.V.V.N.V.N.N.N.N.V.N.V.N.L.4X8X8X|.^.N.V.V.                                ",
"                                        T ( ( ( p.4.4.4.N.N.N.V.N.V.V.N.4.4.4.s.#X$X%X.X(.~.!.T.                                ",
"                                z j z ~ %.e.9.9.D ^ ^ `                 ` ^ ^ ] Q.Q.^.)..X#X#XXXY.N.N.N.                        ",
"                                j z j ~ e.V.V.b.W l l l                 l l l ! V.V.V./.$X8X8X9XY.N.V.V.                        ",
"                                z j z ^ 9.V.V.b.W l l l                 l l g n N.V.V./.$X8X4X,XY.V.V.V.                        ",
"                                z z z ^ e.V.V.v.W l l l                 l l g ! v.N.V./.|.7X7X,XY.V.V.V.                        ",
"                        d z z T 4.b.b.2.] b b b                                 M M n ] a.J.J.~.|.1X1X4X                        ",
"                        z z z T F.V.V.9.^ l l l                                 g d _.( 9.V.N.I.9X8X7X7X                        ",
"                        z z z T H.V.V.e.^ l l l                                 g l l ` 7.V.V.I.%X8X8X8X                        ",
"                        z z z T F.V.V.h.] l l l                                 l l l ^ 9.V.V.I.%X8X8X7X                        ",
"                        M l l T H.V.V.b.                                        l l l ^ e.V.V.I.%X8X8X2XN.V.N.N.                ",
"                        l l d T F.V.V.N.                                        l l l ^ e.V.V.I.%X8X8X2XV.N.V.N.                ",
"                        _.d z K F.V.V.V.                                        l l g ^ 7.V.V.I.%X8X8X2XN.V.N.N.                ",
"                        ^ ^ ^ H p.e.e.9.                                        l l g ^ $.9.e.R. X8X7X2XV.N.V.N.                ",
"                : # # # ,.9.w.u.H ^ ^ ^                                                 ~ ^ ^ {.-X8X8X2XV.V.V.N.                ",
"                # % > # l.V.V.4.P z _.g                                                 j z z '.=X8X8X2XV.V.N.N.                ",
"                # % # # l.V.V.4.P d l g                                                 z j z '.=X8X8X2XV.V.V.N.                ",
"                # % % # l.V.V.4.P d l d                                                 j z j '.&X4X4XqXA.A.A.A.                ",
"                # # # > l.N.V.4.P z z d                                                 z z j I d.L.L.I.qX,X,X,X                ",
"                # # # # l.V.N.4.P z l g                                                 z z z I 4.V.V.J.7X7X7X6X                ",
"                # # > # l.V.V.4.! l l g                                                 z j z I 4.V.V.J.8X8X8X6X                ",
"                # = > # l.V.V.4.P l l g                                                 j z j P 4.V.V.J.8X8X8X6X                ",
"                # # = # l.V.V.4.P d l g                                                 z l d P 4.V.V.J.8X8X8X6X                ",
"                = > > # l.V.V.4.P z l g                                                 z l d P 4.V.V.J.8X8X8X7X                ",
"                # # # # l.V.V.4.P z z g                                                 z z M ! 4.V.N.J.8X8X8X8X                ",
"                # # > = l.V.V.4.P z j d                                                 z z d P 4.N.V.J.8X8X8X7X                ",
"                # # % % l.V.V.4.! l l g                                                 z z j I h.V.V.J.8X8X8X6X                ",
"                # > % % l.V.V.4.P l l d                                                 z z z I 4.V.V.J.8X8X8X6X                ",
"                # # # # l.N.V.4.P d z z                                                 z j z I 4.V.V.J.8X8X8X6X                ",
"                # > # % l.V.V.4.P z z z                                                 j z j I 4.N.V.J.8X8X8X6X                ",
"                # # > = l.V.N.4.P z j d                                                 z j z I 4.V.V.J.>X8X8X6X                ",
"                # # # # l.V.V.4.P z l g                                                 j z z P 4.V.N.J.8X8X8X6X                ",
"                # = > = l.V.V.4.! l l g                                                 z j l ! 4.V.V.J.8X8X8X6X                ",
"                # > # # l.V.V.4.P l l g                                                 j z l ! s.L.L.I.>X;X;X;X                ",
"                # : # # l.V.V.4.P d j z                                                 z l l '.-X8X4X:X`.`.`.`.                ",
"                # # # : l.V.V.7.P z z z                                                 l l l [.=X8X>X>Xg l g l                 ",
"                # # # > l.V.V.7.P z z z                                                 M l d '.=X8X8X>Xg l l l                 ",
"                : = = # ..o.X...D ^ ^ ~                                                 ^ ^ ` { }.@X@X|.y t t t                 ",
"                        4 8 8 r ;.9.e.%.^ z z z                                 l z j _ %.e.9.a.Y.^.^.E.1 1 1 2                 ",
"                        # # # 9 4.V.V.e.^ z z z                                 z z z _ e.V.V.V.V.V.V.l.> # # #                 ",
"                        # % # 9 &.V.V.e.~ z j z                                 z z j _ e.V.V.V.V.V.V.l.> # # #                 ",
"                        % % # 9 &.V.V.e.^ j z j                                 z z z / e.V.V.N.F.D.D.9.# # > #                 ",
"                        # % > 4 &.V.V.7.^ g l l z z z z                         g M _._ w.N.V.F.G T ( Y                         ",
"                        # % # O &.V.V.9.^ g l l z z z j                         g d d ( w.V.V.F.K d g g                         ",
"                        # # # O &.V.V.e.^ g l l z z j z                         g l d ` 7.V.N.F.T g g g                         ",
"                        % # # O 1.z.z.;.] b b M b b b k                         M b m C 4.N.V.F.Y s s s                         ",
"                                # > # O X.V.V.V.V.V.N.F.n d z z l l l l l l l ! v.V.V.N.V.N.V.&.O # % %                         ",
"                                # > # r =.N.V.V.V.V.V.D.n d z z l l l l g g l W V.V.N.V.V.V.N.&.9 # % #                         ",
"                                % % # 8 =.V.V.V.V.V.V.D.n z z z l l l l M g M n N.V.V.N.V.V.V.&.9 # # #                         ",
"                                % # # w } =.=.=.9.9.9.u.` ^ ^ ^ ( ` ^ ( ^ ^ ^ ] X.=.;.X.=.=.=. .O # : #                         ",
"                                        9 w 6 w K T ( ] 9.4.h.4.G.7.7.7.7.7.7.u.8 w 9 w w 9 6 4                                 ",
"                                        # # = > p l g Y z.V.V.V.V.V.V.N.N.V.V.f.X : # # % # # #                                 ",
"                                        % # > > p d g ! v.V.V.V.V.V.N.V.V.V.N.&.X # # # > > # =                                 ",
"                                        > # = > y i i c ;.1.1.1.1.1.1.1.1.1.1.X.X # > > # # # >                                 ",
"                                                , 2 , 1 4 6 6 6 6 6 6 8 4 6 6 6                                                 ",
"                                                # # # # # = # # : # # # # # # #                                                 ",
"                                                > # : # # > # : # # = # = > # :                                                 ",
"                                                # # > # # : # # # : > # # # # =                                                 "
};
